<svg width="57" height="56" viewBox="0 0 57 56" fill="none" xmlns="http://www.w3.org/2000/svg">
<g clip-path="url(#clip0_23_669)">
<path d="M53 15.9834H40.9833L39.35 9.33336C39 7.81669 37.6 6.65002 35.9667 6.65002H21.0333C19.4 6.65002 18 7.81669 17.65 9.33336L16.0167 15.9834H4C2.01667 15.9834 0.5 17.5 0.5 19.4834V52.5C0.5 54.4834 2.01667 56 4 56H53C54.9833 56 56.5 54.4834 56.5 52.5V19.4834C56.5 17.5 54.9833 15.9834 53 15.9834Z" fill="#FF7300"/>
<path d="M48.3334 20.65H8.66669C6.68335 20.65 5.16669 22.1667 5.16669 24.15V47.8333C5.16669 49.8167 6.68335 51.3333 8.66669 51.3333H48.3334C50.3167 51.3333 51.8334 49.8167 51.8334 47.8333V24.15C51.8334 22.1667 50.3167 20.65 48.3334 20.65ZM33.8667 10.0333H23.1334C21.9667 10.0333 21.0334 10.9667 21.0334 12.1333C21.0334 13.3 21.9667 14.2333 23.1334 14.2333H33.8667C35.0334 14.2333 35.9667 13.3 35.9667 12.1333C35.85 10.9667 35.0334 10.0333 33.8667 10.0333Z" fill="#F6D9C1"/>
<path d="M31.5333 0H25.4667L23.7167 2.21667V12.1333H33.2833V2.21667L31.5333 0Z" fill="#FF7300"/>
<path d="M28.5 5.25C29.4665 5.25 30.25 4.4665 30.25 3.5C30.25 2.5335 29.4665 1.75 28.5 1.75C27.5335 1.75 26.75 2.5335 26.75 3.5C26.75 4.4665 27.5335 5.25 28.5 5.25Z" fill="#FF7300"/>
<path d="M19.05 45.7333L22.0833 37.5667H15.3167L18.4667 45.7333H19.05Z" fill="#FF7300"/>
<path d="M18.7 33.6H16.25V39.6666H21.15V33.6H18.7Z" fill="#FF7300"/>
<path d="M19.8667 45.7333L19.1667 40.4833H18.2334L17.65 45.7333H19.8667Z" fill="#FF7300"/>
<path d="M19.1667 40.4833L19.6333 39.6667L19.1667 38.9667H18.2333L17.7667 39.6667L18.2333 40.4833H19.1667Z" fill="#FF7300"/>
<path d="M21.15 36.75L22.2 37.3333L20.5667 41.1833L18.7 38.9667L21.15 36.75ZM16.25 36.75L15.3167 37.3333L16.95 41.1833L18.7 38.9667L16.25 36.75Z" fill="#FF7300"/>
<path d="M24.5333 38.7334L22.2 37.3334L18.8166 45.2667L15.3166 37.3334L12.8666 38.6167C10.65 39.6667 9.36664 41.4167 9.36664 43.2834V46.2H28.15V43.2834C28.15 41.5334 26.75 39.7834 24.5333 38.7334Z" fill="#FF7300"/>
<path d="M22.9 31.7333C22.9 33.8333 21.0333 36.9833 18.7 36.9833C16.3667 36.9833 14.5 33.8333 14.5 31.7333C14.5 29.6333 16.3667 27.8833 18.7 27.8833C21.0333 27.8833 22.9 29.75 22.9 31.7333Z" fill="#FF7300"/>
<path d="M19.5166 27.65C17.7666 27.3 16.8333 28.1166 16.7166 28.4666C16.7166 28.4666 16.6 28.4666 16.6 28.5833C13.9166 27.9999 14.5 31.8499 14.5 31.8499C14.5 32.4333 14.7333 33.2499 14.9666 33.9499C14.9666 33.3666 15.0833 30.9166 16.4833 31.2666C16.4833 31.2666 18.2333 32.5499 20.6833 31.2666C20.6833 31.2666 22.2 30.6833 22.4333 33.8333C22.7833 33.1333 24.8833 28.7 19.5166 27.65Z" fill="#FF7300"/>
<path d="M33.2833 27.1833H48.1V31.6167H33.2833V27.1833Z" fill="#FF7300"/>
<path d="M33.2833 34.7667H48.1V36.6334H33.2833V34.7667ZM33.2833 39.0834H48.1V40.9501H33.2833V39.0834ZM33.2833 43.4001H42.2667V45.2667H33.2833V43.4001Z" fill="#FF7300"/>
</g>
<defs>
<clipPath id="clip0_23_669">
<rect width="56" height="56" fill="white" transform="translate(0.5)"/>
</clipPath>
</defs>
</svg>
