<svg width="156" height="156" viewBox="0 0 156 156" fill="none" xmlns="http://www.w3.org/2000/svg">
<path d="M121.615 46.8651C121.011 46.2558 120.292 45.7723 119.5 45.4423C118.708 45.1123 117.858 44.9424 117 44.9424C116.142 44.9424 115.292 45.1123 114.5 45.4423C113.708 45.7723 112.989 46.2558 112.385 46.8651L63.9599 95.3551L43.6149 74.9451C42.9875 74.339 42.2469 73.8625 41.4354 73.5427C40.6238 73.2228 39.7572 73.066 38.885 73.0811C38.0128 73.0962 37.1522 73.2829 36.3522 73.6306C35.5522 73.9783 34.8285 74.4802 34.2224 75.1076C33.6164 75.735 33.1398 76.4756 32.82 77.2871C32.5002 78.0987 32.3433 78.9653 32.3584 79.8375C32.3735 80.7097 32.5602 81.5703 32.9079 82.3703C33.2557 83.1703 33.7575 83.894 34.3849 84.5001L59.3449 109.46C59.9492 110.069 60.6681 110.553 61.4602 110.883C62.2523 111.213 63.1018 111.383 63.9599 111.383C64.818 111.383 65.6676 111.213 66.4597 110.883C67.2518 110.553 67.9707 110.069 68.5749 109.46L121.615 56.4201C122.275 55.8114 122.801 55.0727 123.161 54.2504C123.522 53.4282 123.707 52.5402 123.707 51.6426C123.707 50.7449 123.522 49.857 123.161 49.0347C122.801 48.2125 122.275 47.4737 121.615 46.8651Z" fill="white"/>
</svg>
