<svg width="56" height="56" viewBox="0 0 56 56" fill="none" xmlns="http://www.w3.org/2000/svg">
<path d="M46.4443 13.6334H10.2724C7.66137 13.6334 5.54468 15.7593 5.54468 18.3816V36.9858C5.54468 39.608 7.66142 41.7338 10.2724 41.7338H16.4332V29.3215H40.2846V41.7338H46.4443C49.0553 41.7338 51.1726 39.608 51.1726 36.9858V18.3816C51.1726 15.7593 49.0553 13.6334 46.4443 13.6334ZM43.5172 22.9989H39.7194C38.8866 22.9989 38.2115 22.3208 38.2115 21.4845C38.2115 21.0661 38.3801 20.688 38.6532 20.4137C38.9263 20.1394 39.3027 19.97 39.7194 19.97H43.5172C44.3499 19.97 45.0251 20.6481 45.0251 21.4845C45.0251 22.3208 44.3499 22.9989 43.5172 22.9989Z" fill="white"/>
<path d="M38.7595 8.68042C38.7595 11.0792 38.7595 13.4781 38.7595 15.8769C39.2677 15.3665 39.776 14.8561 40.2842 14.3457C38.5272 14.3457 36.7702 14.3457 35.0132 14.3457C31.5281 14.3457 28.0431 14.3457 24.5581 14.3457C22.0242 14.3457 19.4902 14.3457 16.9563 14.3457C16.7819 14.3457 16.6074 14.3457 16.433 14.3457C16.9412 14.8561 17.4495 15.3665 17.9577 15.8769C17.9577 13.4781 17.9577 11.0792 17.9577 8.68042C17.4495 9.19082 16.9412 9.70127 16.433 10.2117C18.19 10.2117 19.947 10.2117 21.704 10.2117C25.189 10.2117 28.674 10.2117 32.159 10.2117C34.693 10.2117 37.2269 10.2117 39.7608 10.2117C39.9352 10.2117 40.1097 10.2117 40.2841 10.2117C41.1152 10.2117 41.8088 9.51512 41.8088 8.68042C41.8088 7.84572 41.1152 7.14917 40.2841 7.14917C38.527 7.14917 36.7701 7.14917 35.013 7.14917C31.528 7.14917 28.043 7.14917 24.558 7.14917C22.0241 7.14917 19.4901 7.14917 16.9562 7.14917C16.7818 7.14917 16.6073 7.14917 16.4329 7.14917C15.6018 7.14917 14.9082 7.84572 14.9082 8.68042C14.9082 11.0792 14.9082 13.4781 14.9082 15.8769C14.9082 16.7116 15.6018 17.4082 16.4329 17.4082C18.1899 17.4082 19.9469 17.4082 21.7039 17.4082C25.1889 17.4082 28.6739 17.4082 32.1589 17.4082C34.6929 17.4082 37.2268 17.4082 39.7607 17.4082C39.9351 17.4082 40.1096 17.4082 40.284 17.4082C41.1151 17.4082 41.8086 16.7116 41.8086 15.8769C41.8086 13.4781 41.8086 11.0792 41.8086 8.68042C41.8086 7.84572 41.1151 7.14917 40.284 7.14917C39.4528 7.14917 38.7595 7.84572 38.7595 8.68042Z" fill="white"/>
<path d="M38.7596 29.3214C38.7596 31.4253 38.7596 33.5291 38.7596 35.633C38.7596 38.9892 38.7596 42.3455 38.7596 45.7017C38.7596 46.4759 38.7596 47.2501 38.7596 48.0243C39.2678 47.5139 39.7761 47.0035 40.2843 46.4931C38.5273 46.4931 36.7702 46.4931 35.0132 46.4931C31.5282 46.4931 28.0431 46.4931 24.5581 46.4931C22.0241 46.4931 19.4902 46.4931 16.9562 46.4931C16.7818 46.4931 16.6073 46.4931 16.4329 46.4931C16.9411 47.0035 17.4494 47.5139 17.9576 48.0243C17.9576 45.9204 17.9576 43.8166 17.9576 41.7127C17.9576 38.3565 17.9576 35.0003 17.9576 31.644C17.9576 30.8698 17.9576 30.0957 17.9576 29.3214C17.4494 29.8318 16.9411 30.3423 16.4329 30.8527C18.19 30.8527 19.947 30.8527 21.704 30.8527C25.1891 30.8527 28.6741 30.8527 32.1591 30.8527C34.6931 30.8527 37.227 30.8527 39.7609 30.8527C39.9354 30.8527 40.1098 30.8527 40.2842 30.8527C41.1154 30.8527 41.8089 30.1562 41.8089 29.3214C41.8089 28.4867 41.1154 27.7902 40.2842 27.7902C38.5272 27.7902 36.7702 27.7902 35.0132 27.7902C31.5281 27.7902 28.0431 27.7902 24.5581 27.7902C22.0241 27.7902 19.4901 27.7902 16.9562 27.7902C16.7818 27.7902 16.6073 27.7902 16.4329 27.7902C15.6018 27.7902 14.9082 28.4867 14.9082 29.3214C14.9082 31.4253 14.9082 33.5291 14.9082 35.633C14.9082 38.9892 14.9082 42.3455 14.9082 45.7017C14.9082 46.4759 14.9082 47.2501 14.9082 48.0243C14.9082 48.8591 15.6018 49.5556 16.4329 49.5556C18.1899 49.5556 19.9469 49.5556 21.704 49.5556C25.189 49.5556 28.674 49.5556 32.1591 49.5556C34.693 49.5556 37.227 49.5556 39.7609 49.5556C39.9354 49.5556 40.1098 49.5556 40.2842 49.5556C41.1154 49.5556 41.8089 48.8591 41.8089 48.0243C41.8089 45.9204 41.8089 43.8166 41.8089 41.7127C41.8089 38.3565 41.8089 35.0003 41.8089 31.644C41.8089 30.8698 41.8089 30.0957 41.8089 29.3214C41.8089 28.4867 41.1154 27.7902 40.2842 27.7902C39.4531 27.7902 38.7596 28.4867 38.7596 29.3214Z" fill="white"/>
<path d="M23.7437 37.1909C26.4527 37.1909 29.1616 37.1909 31.8704 37.1909C32.238 37.1909 32.6057 37.1909 32.9733 37.1909C33.8045 37.1909 34.498 36.4944 34.498 35.6597C34.498 34.8249 33.8045 34.1284 32.9733 34.1284C30.2645 34.1284 27.5555 34.1284 24.8466 34.1284C24.479 34.1284 24.1114 34.1284 23.7437 34.1284C22.9126 34.1284 22.2191 34.8249 22.2191 35.6597C22.2191 36.4944 22.9126 37.1909 23.7437 37.1909Z" fill="white"/>
<path d="M23.7437 43.1926C25.8998 43.1926 28.056 43.1926 30.2121 43.1926C31.0433 43.1926 31.7368 42.4961 31.7368 41.6614C31.7368 40.8266 31.0433 40.1301 30.2121 40.1301C28.056 40.1301 25.8999 40.1301 23.7437 40.1301C22.9126 40.1301 22.2191 40.8266 22.2191 41.6614C22.2191 42.4961 22.9126 43.1926 23.7437 43.1926Z" fill="white"/>
</svg>
