<svg width="21" height="20" viewBox="0 0 21 20" fill="none" xmlns="http://www.w3.org/2000/svg">
<path d="M18.8333 8.33335H6.18332L11.6833 2.85001C11.9972 2.53617 12.1735 2.11052 12.1735 1.66668C12.1735 1.22284 11.9972 0.797187 11.6833 0.483347C11.3695 0.169508 10.9438 -0.00680542 10.5 -0.00680542C10.0562 -0.00680542 9.6305 0.169508 9.31666 0.483347L0.983323 8.81668C0.831589 8.97519 0.712647 9.1621 0.633323 9.36668C0.466627 9.77245 0.466627 10.2276 0.633323 10.6333C0.712647 10.8379 0.831589 11.0248 0.983323 11.1833L9.31666 19.5167C9.47159 19.6729 9.65593 19.7969 9.85903 19.8815C10.0621 19.9661 10.28 20.0097 10.5 20.0097C10.72 20.0097 10.9379 19.9661 11.141 19.8815C11.3441 19.7969 11.5284 19.6729 11.6833 19.5167C11.8395 19.3617 11.9635 19.1774 12.0481 18.9743C12.1328 18.7712 12.1763 18.5534 12.1763 18.3333C12.1763 18.1133 12.1328 17.8955 12.0481 17.6924C11.9635 17.4893 11.8395 17.305 11.6833 17.15L6.18332 11.6667H18.8333C19.2754 11.6667 19.6993 11.4911 20.0118 11.1785C20.3244 10.866 20.5 10.442 20.5 10C20.5 9.55799 20.3244 9.13406 20.0118 8.8215C19.6993 8.50894 19.2754 8.33335 18.8333 8.33335Z" fill="#FF7300"/>
</svg>
