<svg width="322" height="100" viewBox="0 0 322 100" fill="none" xmlns="http://www.w3.org/2000/svg">
<g clip-path="url(#clip0_29_3625)">
<path d="M33.7097 4.89312C41.1064 5.79773 50.9687 10.2796 57.0721 17.1875C49.069 7.19576 38.2771 0.411215 27.8489 3.12291e-05C10.9537 -0.616745 1.53596 15.8717 6.79047 36.7599C7.51801 39.6793 8.48808 42.5165 9.70066 45.2714C11.3578 49.5066 13.7022 53.7829 16.6932 57.8948C18.6737 60.6086 20.8564 63.199 23.1603 65.5839C21.5031 63.8158 19.9672 61.9655 18.5525 59.9918C4.7695 41.0362 6.50753 20.1069 23.1603 14.0214C30.4358 11.3487 39.813 12.5412 48.5436 15.5017C40.3385 9.62174 30.3549 5.9622 19.2396 9.78622C15.1573 11.1842 12.045 13.7747 9.90275 17.1875C13.3788 8.30595 21.0989 3.37174 33.7097 4.89312Z" fill="#144992"/>
<path d="M70.0871 44.079H69.9254C79.7877 60.6497 81.9299 77.6316 75.4628 86.6777C66.6514 99.0132 43.6933 92.2286 24.1708 71.505C5.09286 51.2747 -3.63771 25.2467 4.20363 12.5823C4.04196 12.829 3.83986 13.0346 3.67818 13.2813C-5.73951 26.4392 3.55693 55.0987 24.4133 77.2204C45.3101 99.3421 69.8446 106.62 79.2623 93.4622C86.6994 83.0592 82.4554 62.9935 70.0871 44.079Z" fill="#F68B22"/>
<path d="M65.4793 35.8964C67.9448 38.9803 68.7128 42.4753 67.1769 43.7911C65.6409 45.1069 62.367 43.6678 59.9014 40.625C57.4358 37.5823 56.6679 34.0461 58.2038 32.7714C59.6993 31.4556 62.9733 32.8536 65.4793 35.8964Z" fill="#F68B22"/>
<path d="M95.0662 36.8422C95.3895 36.8422 95.7937 36.9655 96.1979 37.2123C96.5617 37.459 96.885 37.7057 97.2084 37.9113C98.0572 36.5955 98.5018 35.8965 98.5018 35.7731C98.5018 35.3208 98.2997 34.9096 97.8955 34.5807C97.4913 34.2106 97.0467 34.0461 96.6021 34.0461C95.2683 34.0461 94.0557 34.6218 92.8835 35.732C91.7518 36.8422 91.1455 38.0757 91.1455 39.4327C91.1455 40.0083 91.5093 40.4195 92.1964 40.6251C92.8027 40.7896 93.3686 40.954 93.9344 41.1185C93.3281 41.4475 92.8027 41.8586 92.2772 42.3521C91.671 43.01 91.3476 43.5856 91.388 44.079V44.2846C93.4494 42.3932 95.8746 41.4063 98.6231 41.3241C99.2698 40.4195 99.8761 39.5149 100.361 38.6925C96.4404 38.6925 94.1365 38.3225 93.4494 37.5412C94.177 37.0889 94.7024 36.8422 95.0662 36.8422Z" fill="#144992"/>
<path d="M117.297 36.8011C117.297 35.8142 117.095 34.8274 116.69 33.7994C116.286 32.7715 115.68 31.9902 114.993 31.4146L113.255 34.5807C113.619 34.9096 113.982 35.4442 114.427 36.2254C114.872 37.0067 115.074 37.6234 115.074 38.0346C115.074 38.1169 115.033 38.1169 115.033 38.1169H109.94H108.93H108.324C107.717 38.1169 107.434 37.9524 107.354 37.6234C107.111 36.5132 106.869 34.7451 106.707 32.278C106.586 30.4277 106.464 28.5774 106.343 26.7271C106.141 26.8915 105.777 27.3849 105.171 28.084C104.565 28.8652 104.282 29.3586 104.282 29.482L105.333 41.4474H108.89H109.9H116.367C116.973 41.4063 117.297 39.8438 117.297 36.8011Z" fill="#144992"/>
<path d="M113.74 44.0379C113.012 43.38 112.568 43.051 112.446 43.051C112.325 43.051 111.921 43.38 111.234 44.0379C110.547 44.7369 110.223 45.1069 110.223 45.2303C110.223 45.3537 110.547 45.6826 111.234 46.2171C111.881 46.7517 112.325 47.0806 112.487 47.0806C114.063 46.176 114.831 45.5593 114.831 45.2303C114.831 45.1069 114.467 44.7369 113.74 44.0379Z" fill="#144992"/>
<path d="M135.485 36.5954C134.879 36.8421 134.192 37.0888 133.586 37.3766H133.384C134.596 35.7319 135.607 34.6628 136.334 34.2105C136.415 34.4161 136.415 34.6217 136.415 34.9095C136.415 35.6908 136.132 36.2664 135.485 36.5954ZM136.415 42.4753H135.728C135.243 42.4753 134.718 42.2697 134.232 41.9408C133.747 41.6118 133.424 41.1595 133.182 40.6661C133.747 40.6661 134.354 40.7895 135 41.0773C135.688 41.4062 136.173 41.7763 136.375 42.2286V42.4753H136.415ZM160.465 29.0707C159.495 28.495 159.009 28.0427 158.888 27.796C158.807 27.5493 158.767 27.1793 158.727 26.7681L158.524 26.6036C157.878 27.3437 157.191 28.5362 156.423 30.1809C156.706 30.5921 157.029 30.921 157.352 31.1266C157.514 31.5789 157.756 32.648 157.999 34.3339C158.242 36.0197 158.403 37.171 158.403 37.7467C158.403 37.8289 158.363 37.9523 158.322 38.0756H156.018C155.533 38.0756 155.251 38.0756 155.21 38.0345C154.927 37.9934 154.765 37.8289 154.725 37.5411C154.604 36.801 154.483 34.9918 154.321 32.0723C154.2 29.7697 153.917 27.9605 153.593 26.6036L153.472 26.5214L151.168 29.852L152.381 38.1168H149.268H148.703C147.854 38.1168 146.641 37.2533 145.146 35.5263C144.095 34.2927 143.044 33.0181 141.953 31.8256L148.743 30.4276C149.107 29.2763 149.39 28.1661 149.632 27.1381C149.39 27.097 146.399 27.7138 140.659 28.9885C140.093 30.4687 139.689 31.9901 139.447 33.5526L144.135 38.1168H139.447H136.617C136.981 37.2944 137.264 36.5131 137.628 35.7319C138.032 34.6628 138.234 33.8404 138.234 33.3059V31.5789C137.304 31.5789 136.253 32.1135 135.122 33.1825C134.111 34.0872 133.343 34.9918 132.777 36.0197C132.373 36.9654 132.05 37.6645 131.888 38.199H130.878H130.312C129.059 38.199 128.129 37.7467 127.442 36.8832C126.836 35.9786 126.229 35.0329 125.664 34.1283C125.502 34.3339 125.179 34.8273 124.694 35.6497C124.208 36.472 123.966 36.9243 123.966 37.0477C123.966 37.0888 124.249 37.5 124.815 38.2812C125.381 39.0625 125.704 39.597 125.704 39.926C125.704 40.6661 124.855 41.5707 123.198 42.6809C121.581 43.8322 120.288 44.4079 119.439 44.4079C118.914 44.4079 118.226 44.2023 117.539 43.75C116.812 43.3388 116.488 43.1332 116.569 43.1332C116.448 43.1332 116.408 43.1332 116.408 43.2154V43.5855C116.933 44.2023 117.944 44.8602 119.318 45.6003C120.732 46.2993 121.824 46.6283 122.551 46.6283C123.643 46.6283 124.653 45.9704 125.542 44.6546C126.189 43.5033 126.795 42.3931 127.402 41.2829L127.563 41.1184C128.048 41.3651 128.453 41.4885 128.735 41.4885H129.584H130.918H130.959C131.039 41.4885 131.282 41.8585 131.646 42.5987C132.131 43.5444 132.575 44.2434 132.939 44.6957C133.545 45.4358 134.192 45.8059 134.798 45.8059C136.415 45.8059 137.668 44.3668 138.598 41.4885H144.297L145.55 39.4325L147.733 41.4885H150.198H151.492L152.542 39.4737C152.583 39.8437 152.623 40.2549 152.623 40.625C152.704 41.2006 152.866 41.4885 153.108 41.4885H155.251H156.18H159.252C159.535 41.324 159.697 41.2418 159.737 41.1595C159.858 40.995 160.06 40.3783 160.262 39.3503C160.505 38.2812 160.586 37.6645 160.545 37.4177L160.06 33.1825L162.405 30.0987C161.839 29.852 161.192 29.523 160.465 29.0707Z" fill="#144992"/>
<path d="M172.429 28.4128C173.803 29.2763 174.611 29.6875 174.894 29.6875C175.016 29.6875 175.298 29.3997 175.784 28.7829C176.228 28.2483 176.511 27.8783 176.673 27.6316L174.167 26.2747C173.075 27.097 172.55 27.5493 172.59 27.5493C172.227 27.5493 171.499 27.1381 170.327 26.2747C169.316 27.3849 168.751 28.0428 168.548 28.2895C169.599 28.9885 170.448 29.3997 171.054 29.6052C171.742 28.9885 172.227 28.5773 172.429 28.4128Z" fill="#144992"/>
<path d="M185.888 44.1612C185.525 44.5724 185.282 44.7779 185.12 44.7779C184.918 44.7779 184.191 44.3668 182.978 43.5033C182.372 44.2023 181.846 44.9013 181.361 45.6003C181.846 46.0526 182.614 46.546 183.665 47.0806C184.272 46.4638 184.716 45.9704 184.999 45.7237L187.263 47.0806C187.788 46.6283 188.354 45.9704 188.96 44.9424L186.616 43.4622C186.535 43.5444 186.292 43.75 185.888 44.1612Z" fill="#144992"/>
<path d="M173.56 36.3487C174.005 35.9786 174.369 35.6908 174.692 35.5674C175.339 34.9506 175.784 34.4572 176.026 34.046L176.592 36.7598L173.56 36.3487ZM186.373 34.6217C187.222 35.8141 187.828 36.9654 188.233 38.0756H182.048H180.998H180.513C179.704 38.0756 179.26 37.8289 179.098 37.3355C178.815 36.472 178.492 35.0329 178.168 33.0181C177.804 30.6743 177.522 29.1529 177.319 28.4539L177.158 28.3306L175.379 31.4556C175.46 31.7434 175.541 32.0723 175.662 32.4013C174.571 33.0181 173.48 33.6348 172.388 34.2927C171.62 34.7862 171.095 35.3618 170.691 36.0608C170.327 36.7187 169.923 37.9523 169.478 39.7615L174.894 40.7483C175.177 40.7894 175.501 40.4605 175.905 39.7615C176.39 38.898 176.632 38.4046 176.794 38.2812C176.996 38.9391 177.198 39.597 177.4 40.2549C177.764 41.0362 178.209 41.4062 178.896 41.4062H180.957H182.008H189.688C190.132 39.0625 190.334 37.5 190.334 36.6776C190.334 35.2385 189.566 33.5526 188.031 31.6612L186.373 34.6217Z" fill="#144992"/>
<path d="M195.71 30.9211L194.659 34.4162C195.266 34.4984 195.953 34.9919 196.882 35.8142C197.772 36.6777 198.216 37.3767 198.216 37.9524C198.216 37.9935 198.216 38.0346 198.176 38.0757H192.315L192.032 41.4063H199.267C199.914 41.4063 200.278 40.255 200.278 37.9113C200.237 34.6218 198.742 32.2781 195.71 30.9211Z" fill="#144992"/>
<path d="M207.876 38.0757C206.987 38.0757 206.421 37.7467 206.058 37.1711C206.098 37.13 206.098 37.0888 206.058 37.0477C206.017 36.8832 206.138 36.6777 206.421 36.4309C206.704 36.1842 206.906 36.0198 207.028 36.0198C207.351 36.0198 207.634 36.2665 207.917 36.7599C207.957 36.801 208.119 37.2122 208.483 37.9112C208.281 37.9934 208.078 38.0757 207.876 38.0757ZM242.031 29.0707C241.061 28.4951 240.535 28.0428 240.454 27.7961C240.333 27.5494 240.293 27.1793 240.293 26.7681L240.091 26.6036C239.444 27.3438 238.757 28.4951 237.989 30.1809C238.312 30.5921 238.595 30.9211 238.918 31.1267C239.08 31.579 239.323 32.648 239.565 34.3339C239.848 36.0198 239.969 37.1711 239.969 37.7467C239.969 37.829 239.929 37.9523 239.888 38.0757H237.787H237.019C236.089 38.0757 235.604 37.4178 235.604 36.1842C235.644 36.102 235.644 35.9375 235.644 35.7319C235.644 35.5263 235.604 35.3619 235.604 35.2796C235.604 34.7451 235.564 34.3339 235.483 33.9638C235.24 34.1283 234.876 34.5395 234.311 35.1974C233.745 35.8964 233.502 36.3487 233.502 36.5954C233.502 36.7188 233.543 36.8832 233.583 37.13C233.624 37.3767 233.664 37.5411 233.664 37.6645C233.664 37.7878 233.583 37.9112 233.502 38.0346C232.088 37.9523 231.36 37.9523 231.239 38.0346C231.562 36.5954 231.724 35.2796 231.724 34.005C231.724 33.9227 231.683 33.7582 231.643 33.676C231.32 33.9638 230.875 34.4573 230.35 35.1974C229.743 36.0198 229.46 36.5954 229.46 36.8832C229.46 37.4589 229.339 37.829 229.177 37.9934H228.046H226.793H226.51C227.116 36.2254 227.439 35.074 227.439 34.4984L227.359 33.7171C227.076 33.8405 226.631 34.2517 226.065 34.9096C225.459 35.6086 225.176 36.0609 225.176 36.3487C225.176 36.9244 225.055 37.4589 224.812 37.9523H222.347H221.417H220.406C220.649 37.5823 220.851 37.2122 221.013 36.8832C221.296 36.4309 221.417 36.0609 221.417 35.773C221.417 34.9507 220.972 34.2105 220.083 33.5938C219.275 33.0181 218.426 32.7303 217.577 32.7303C216.203 32.7303 215.152 33.0592 214.505 33.7994C214.101 34.2105 213.616 35.1563 212.929 36.7188C213.616 36.6365 213.939 36.5954 214.02 36.5954C214.95 36.5954 215.758 37.0477 216.364 37.9112H212.605H211.393H210.867C210.342 34.4161 209.412 32.648 208.038 32.648C207.149 32.648 206.3 33.5115 205.411 35.1974C204.643 36.7188 204.239 37.9523 204.239 38.898C204.239 39.8027 204.764 40.4194 205.734 40.7484C205.855 40.7895 206.745 40.9951 208.321 41.2829C207.593 41.9819 206.704 42.6398 205.694 43.2155C204.522 43.8323 203.471 44.1612 202.622 44.1612C202.379 44.1612 201.935 44.079 201.328 43.9145C200.722 43.75 200.318 43.6678 199.995 43.6678C199.914 43.6678 199.833 43.7089 199.752 43.7911V44.079C200.237 44.6957 201.086 45.1892 202.218 45.6415C203.309 46.0527 204.279 46.2994 205.128 46.2994C206.138 46.2994 207.23 45.6826 208.321 44.4902C209.17 43.5444 209.857 42.4754 210.382 41.2829H211.393H212.646H216.728C217.173 40.625 217.496 40.0905 217.698 39.7615C218.102 40.4194 218.385 40.954 218.588 41.2829H221.417H222.347H224.044C224.206 41.2829 224.408 41.1596 224.65 40.9128C224.893 40.6661 225.014 40.5017 225.095 40.4194C225.257 40.7073 225.378 41.0362 225.378 41.2829H226.752H228.005H228.935C228.935 41.2829 229.097 41.2007 229.258 41.0362C229.42 40.8306 229.541 40.7484 229.622 40.7484C229.743 40.7484 229.945 40.954 230.188 41.2829H234.23C234.472 40.9129 234.674 40.625 234.836 40.4194C234.998 40.7895 235.159 41.0773 235.24 41.2829H236.695H237.746H240.656C240.939 41.1184 241.101 41.0362 241.141 40.9951C241.263 40.8306 241.465 40.2138 241.667 39.1859C241.869 38.1168 241.99 37.5 241.95 37.2533L241.627 33.1003L243.971 30.0165C243.405 29.852 242.799 29.523 242.031 29.0707Z" fill="#144992"/>
<path d="M246.436 31.8256L247.77 41.653C248.942 40.2549 249.508 38.5279 249.508 36.472C249.508 34.6628 249.225 31.8256 248.619 27.8372C247.568 29.3585 246.841 30.7154 246.436 31.8256Z" fill="#144992"/>
<path d="M260.906 28.4128C262.281 29.2763 263.089 29.6875 263.372 29.6875C263.493 29.6875 263.817 29.3997 264.302 28.7829C264.746 28.2483 265.029 27.8783 265.151 27.6316L262.645 26.2747C261.553 27.097 261.028 27.5493 261.068 27.5493C260.745 27.5493 259.977 27.1381 258.805 26.2747C257.794 27.3849 257.188 28.0428 257.067 28.2895C258.118 28.9885 258.966 29.3997 259.532 29.6052C260.26 28.9885 260.704 28.5773 260.906 28.4128Z" fill="#144992"/>
<path d="M262.038 36.3487C262.523 35.9787 262.887 35.6908 263.17 35.5675C263.817 34.9507 264.261 34.4573 264.504 34.0461L265.07 36.7599L262.038 36.3487ZM276.751 34.5806C275.579 33.6349 274.366 32.6892 273.234 31.7435C276.064 30.8389 278.206 30.181 279.621 29.7698C279.984 28.5362 280.267 27.426 280.469 26.3981L271.011 29.2352C270.85 29.9343 270.688 30.5922 270.526 31.25C270.284 32.0724 270.203 32.7303 270.203 33.2237C270.203 33.3882 270.567 33.8816 271.294 34.6218C272.022 35.403 272.507 35.7731 272.669 35.7731C272.911 35.7731 273.073 35.6497 273.154 35.403L276.508 38.0346H270.526H268.99C268.222 38.0346 267.778 37.7879 267.576 37.2945C267.293 36.431 267.01 34.9918 266.646 32.977C266.282 30.6333 265.999 29.0708 265.838 28.4129L265.676 28.2895L263.857 31.4145C263.898 31.7023 264.019 32.0313 264.14 32.3602C263.049 33.0181 261.957 33.5938 260.866 34.2517C260.139 34.7451 259.573 35.3208 259.209 36.0198C258.845 36.6777 258.441 37.9112 257.996 39.7204L263.453 40.7073C263.695 40.7484 264.059 40.4195 264.463 39.6793C264.908 38.8158 265.191 38.3224 265.353 38.2402C265.555 38.8981 265.757 39.556 265.959 40.2139C266.282 40.9951 266.808 41.3652 267.454 41.3652H268.99H270.526H278.327C278.974 39.2681 279.297 38.0757 279.297 37.7468C279.378 37.2122 278.489 36.1431 276.751 34.5806Z" fill="#144992"/>
<path d="M300.922 31.0445L303.468 32.3192C304.438 31.6201 305.085 30.9211 305.287 30.3044L302.7 28.8241C302.417 29.1119 302.175 29.3175 301.892 29.6053C301.407 30.0165 301.164 30.2221 301.124 30.2221C300.8 30.2221 300.032 29.8109 298.86 28.9063C297.931 29.7698 297.284 30.4688 296.961 30.9211C298.456 31.8257 299.305 32.278 299.507 32.278C299.467 32.278 299.952 31.8669 300.922 31.0445Z" fill="#144992"/>
<path d="M299.952 28.6185C300.477 29.0708 300.8 29.3175 300.881 29.3175C301.043 29.3175 301.407 29.1119 301.892 28.6596C302.296 28.2895 302.579 28.0017 302.7 27.7961C301.649 26.727 301.043 26.1925 300.881 26.1514C299.709 27.056 299.103 27.5905 299.103 27.8372C299.143 27.8783 299.386 28.1662 299.952 28.6185Z" fill="#144992"/>
<path d="M313.169 29.0707C312.199 28.4951 311.673 28.0428 311.592 27.7961C311.471 27.5494 311.431 27.1793 311.431 26.7681L311.269 26.6036C310.622 27.3438 309.895 28.5362 309.167 30.1809C309.45 30.5921 309.773 30.9211 310.056 31.1267C310.258 31.579 310.461 32.648 310.703 34.3339C310.946 36.0198 311.107 37.1711 311.107 37.7467C311.107 37.829 311.067 37.9523 310.986 38.0346H308.925H308.116C307.187 38.0346 306.742 37.3767 306.742 36.1431C306.742 36.0609 306.782 35.8964 306.782 35.6908C306.782 35.4852 306.782 35.3207 306.742 35.2385C306.742 34.704 306.702 34.2928 306.621 33.9638C306.378 34.1283 305.974 34.5395 305.449 35.1974C304.923 35.8964 304.64 36.3487 304.64 36.5954C304.64 36.7188 304.681 36.8832 304.721 37.13C304.802 37.3767 304.802 37.5411 304.802 37.6645C304.802 37.7879 304.761 37.9112 304.64 38.0346C303.266 37.9523 302.498 37.9523 302.377 38.0346C302.7 36.6365 302.862 35.2796 302.862 34.005C302.862 33.9227 302.821 33.7994 302.781 33.676C302.458 33.9638 302.053 34.4573 301.488 35.1974C300.881 36.0609 300.598 36.5954 300.598 36.8832C300.598 37.4178 300.477 37.829 300.315 37.9934H299.143H297.89H297.648C298.254 36.2254 298.537 35.074 298.537 34.4984L298.456 33.7171C298.173 33.8405 297.729 34.2517 297.163 34.9096C296.597 35.6086 296.314 36.0609 296.314 36.3487C296.314 36.9244 296.193 37.4589 295.91 37.9523H293.525H293.04C291.787 37.9523 290.857 37.5 290.17 36.6365C289.604 35.7319 288.998 34.7862 288.392 33.8816C288.23 34.0872 287.907 34.5806 287.422 35.403C286.937 36.2253 286.734 36.6777 286.734 36.801C286.734 36.8421 287.017 37.2533 287.583 38.0346C288.149 38.8158 288.472 39.3504 288.472 39.6793C288.472 40.4194 287.624 41.324 285.966 42.4342C284.309 43.5855 283.056 44.1612 282.208 44.1612C281.642 44.1612 280.995 43.9556 280.308 43.5033C279.58 43.0921 279.257 42.8865 279.297 42.8865C279.176 42.8865 279.136 42.8865 279.136 42.9688V43.3388C279.661 43.9556 280.631 44.6135 282.046 45.3536C283.46 46.0527 284.511 46.4227 285.239 46.4227C286.371 46.4227 287.381 45.7648 288.311 44.449C288.917 43.2977 289.564 42.1875 290.17 41.1184L290.332 40.954C290.857 41.2007 291.221 41.324 291.504 41.324H292.676H293.687H295.303C295.465 41.324 295.667 41.2007 295.91 40.954C296.112 40.7073 296.273 40.5428 296.354 40.4605C296.516 40.7895 296.637 41.0773 296.637 41.324H298.052H299.305H300.194C300.275 41.324 300.356 41.2418 300.558 41.0773C300.72 40.8717 300.841 40.7895 300.881 40.7895C301.043 40.7895 301.205 40.9951 301.488 41.324H305.489C305.732 40.954 305.974 40.6661 306.095 40.4605C306.257 40.8306 306.419 41.1184 306.499 41.324H307.914H309.005H311.916C312.199 41.1596 312.36 41.0773 312.401 41.0362C312.522 40.8717 312.724 40.255 312.926 39.227C313.169 38.1579 313.25 37.5411 313.209 37.2944L312.845 33.1415L315.19 30.0987C314.583 29.852 313.937 29.523 313.169 29.0707Z" fill="#144992"/>
<path d="M319.797 27.8372C318.706 29.3997 317.938 30.7154 317.574 31.8668L318.949 41.6941C320.121 40.296 320.687 38.5691 320.687 36.5131C320.687 34.6628 320.404 31.7845 319.797 27.8372Z" fill="#144992"/>
<path d="M138.557 58.4703H136.051V60.8552H138.557V58.4703Z" fill="#144992"/>
<path d="M199.914 58.4703H197.367V60.8552H199.914V58.4703Z" fill="#144992"/>
<path d="M215.192 58.4703H212.686V60.8552H215.192V58.4703Z" fill="#144992"/>
<path d="M99.1889 64.5148C98.5826 64.1858 97.6126 63.8569 96.3191 63.5691C95.0257 63.2401 94.2173 62.9523 93.894 62.6645C93.6515 62.4177 93.4898 62.171 93.4898 61.8421C93.4898 61.5131 93.611 61.2253 93.894 61.0197C94.3386 60.6908 94.9449 60.5263 95.7128 60.5263C96.4404 60.5263 97.0467 60.6908 97.37 60.9786C97.7338 61.2664 97.9763 61.7599 98.0976 62.4589L100.765 62.3766C100.725 61.1431 100.28 60.1562 99.4314 59.4161C98.5826 58.676 97.37 58.3059 95.7128 58.3059C94.7024 58.3059 93.8536 58.4704 93.126 58.7993C92.4389 59.1283 91.873 59.5806 91.5092 60.1562C91.105 60.7319 90.9029 61.3898 90.9029 62.0888C90.9029 63.1579 91.3071 64.0214 92.1155 64.7615C92.6814 65.296 93.6919 65.7072 95.1066 66.0773C96.2383 66.324 96.9254 66.5296 97.2084 66.6529C97.653 66.8174 97.9763 67.023 98.1784 67.2286C98.3401 67.4342 98.4209 67.722 98.4209 68.0099C98.4209 68.5033 98.2188 68.9145 97.7742 69.2845C97.3296 69.6546 96.6829 69.8191 95.8341 69.8191C95.0257 69.8191 94.4194 69.6135 93.894 69.2023C93.4494 68.7911 93.126 68.1332 92.9643 67.2286L90.3775 67.4753C90.5392 68.9967 91.0646 70.1069 91.9539 70.9293C92.8431 71.7105 94.1365 72.1217 95.7937 72.1217C96.9254 72.1217 97.8955 71.9572 98.623 71.6283C99.391 71.2993 99.9973 70.8059 100.442 70.148C100.846 69.4901 101.048 68.75 101.048 68.0099C101.048 67.1875 100.887 66.4474 100.523 65.8717C100.28 65.296 99.7952 64.8849 99.1889 64.5148Z" fill="#144992"/>
<path d="M108.647 67.7632C108.647 68.3799 108.607 68.7911 108.526 69.0378C108.445 69.3668 108.243 69.6546 107.919 69.9013C107.515 70.1891 107.071 70.3536 106.626 70.3536C106.222 70.3536 105.858 70.2303 105.616 69.9424C105.373 69.6957 105.211 69.3668 105.211 69.0378C105.211 68.6678 105.413 68.3799 105.696 68.1332C105.899 67.9687 106.343 67.8454 107.071 67.6809C107.758 67.5576 108.243 67.3931 108.607 67.2697V67.7632H108.647ZM111.113 68.7089L111.153 65.7072C111.153 64.597 111.032 63.8158 110.83 63.4046C110.587 62.9934 110.223 62.6234 109.657 62.3355C109.132 62.0888 108.283 61.9655 107.152 61.9655C105.899 61.9655 104.969 62.171 104.363 62.6234C103.756 63.0757 103.312 63.7747 103.029 64.7204L105.292 65.1316C105.454 64.6793 105.656 64.3503 105.939 64.1859C106.181 64.0214 106.545 63.9391 106.99 63.9391C107.637 63.9391 108.081 64.0625 108.364 64.2681C108.607 64.4737 108.728 64.8437 108.728 65.3372V65.5839C108.283 65.7895 107.475 65.9951 106.262 66.2418C105.413 66.4062 104.726 66.6118 104.282 66.8174C103.837 67.0641 103.473 67.3931 103.19 67.8043C102.907 68.2155 102.786 68.75 102.786 69.2845C102.786 70.1069 103.069 70.8059 103.635 71.3405C104.201 71.875 104.969 72.1628 105.939 72.1628C106.505 72.1628 106.99 72.0395 107.515 71.8339C108 71.6283 108.445 71.2993 108.89 70.8882C108.89 70.9293 108.93 71.0115 108.97 71.176C109.051 71.5049 109.132 71.7516 109.213 71.9161H111.719C111.517 71.4638 111.355 71.0115 111.274 70.6003C111.153 70.1891 111.113 69.5724 111.113 68.7089Z" fill="#144992"/>
<path d="M119.762 66.324C119.762 67.722 119.722 68.5855 119.56 68.9556C119.439 69.3256 119.196 69.6135 118.873 69.8602C118.509 70.1069 118.146 70.2303 117.701 70.2303C117.337 70.2303 117.014 70.148 116.731 69.9424C116.488 69.7779 116.327 69.5312 116.205 69.2434C116.125 68.9145 116.084 68.051 116.084 66.6941V62.2122H113.578V68.3799C113.578 69.2845 113.659 70.0247 113.902 70.5181C114.144 71.0115 114.467 71.4638 114.993 71.7516C115.518 72.0395 116.084 72.2039 116.731 72.2039C117.337 72.2039 117.984 72.0395 118.55 71.7516C119.116 71.4227 119.56 71.0115 119.924 70.5181V71.9572H122.268V62.2122H119.762V66.324Z" fill="#144992"/>
<path d="M130.473 69.3668C130.069 69.8602 129.544 70.1069 128.978 70.1069C128.25 70.1069 127.685 69.7779 127.28 69.0789C126.997 68.6266 126.836 67.8454 126.836 66.8174C126.836 65.8306 127.038 65.0904 127.442 64.6381C127.846 64.1447 128.372 63.898 128.938 63.898C129.544 63.898 130.029 64.1447 130.433 64.6381C130.837 65.1316 131.039 65.9539 131.039 67.0641C131.08 68.1332 130.878 68.8733 130.473 69.3668ZM131.08 63.3635C130.312 62.4589 129.382 62.0066 128.331 62.0066C127.159 62.0066 126.189 62.4589 125.461 63.2812C124.693 64.1447 124.33 65.4194 124.33 67.0641C124.33 68.6677 124.693 69.9424 125.502 70.847C126.27 71.7516 127.199 72.2039 128.291 72.2039C128.816 72.2039 129.382 72.0395 129.908 71.7516C130.433 71.4638 130.878 71.0526 131.282 70.5181V71.9572H133.626V58.5526H131.12V63.3635H131.08Z" fill="#144992"/>
<path d="M138.557 62.171H136.051V71.9161H138.557V62.171Z" fill="#144992"/>
<path d="M148.945 65.995H155.574V63.7335H148.945V60.773H156.018V58.4703H146.318V71.9161H156.301V69.6134H148.945V65.995Z" fill="#144992"/>
<path d="M161.03 58.4703H158.524V71.8749H161.03V58.4703Z" fill="#144992"/>
<path d="M165.557 66.2418C165.557 65.5428 165.719 64.9671 166.083 64.5559C166.447 64.1036 166.891 63.9392 167.457 63.9392C167.983 63.9392 168.427 64.1036 168.791 64.5148C169.155 64.8849 169.357 65.4605 169.357 66.2418H165.557ZM170.65 63.4457C169.842 62.5 168.71 62.0066 167.295 62.0066C166.042 62.0066 164.992 62.4589 164.143 63.4046C163.334 64.3092 162.93 65.5428 162.93 67.1875C162.93 68.5444 163.254 69.6546 163.86 70.5181C164.668 71.6283 165.881 72.1628 167.538 72.1628C168.629 72.1628 169.478 71.9161 170.165 71.4227C170.852 70.9293 171.378 70.2303 171.701 69.2846L169.195 68.8734C169.074 69.3668 168.831 69.7369 168.589 69.9424C168.346 70.1892 167.983 70.2714 167.578 70.2714C167.013 70.2714 166.527 70.0658 166.123 69.6546C165.719 69.2434 165.517 68.6267 165.517 67.8865H171.782C171.822 65.8306 171.459 64.3915 170.65 63.4457Z" fill="#144992"/>
<path d="M179.138 69.6545C178.855 69.9423 178.451 70.1068 177.966 70.1068C177.319 70.1068 176.834 69.8601 176.471 69.4078C176.107 68.9144 175.905 68.092 175.905 66.9407C175.905 65.9127 176.107 65.1726 176.471 64.7203C176.834 64.268 177.319 64.0624 177.966 64.0624C178.411 64.0624 178.815 64.1858 179.098 64.4325C179.381 64.6792 179.583 65.0493 179.664 65.5427L182.17 65.0904C181.846 64.0624 181.402 63.2812 180.674 62.7877C179.987 62.2943 179.098 62.0476 177.885 62.0476C176.471 62.0476 175.339 62.4999 174.53 63.4045C173.682 64.3091 173.277 65.5427 173.277 67.1463C173.277 68.7499 173.682 69.9835 174.53 70.8881C175.339 71.7927 176.471 72.245 177.845 72.245C179.057 72.245 180.028 71.9571 180.755 71.3404C181.483 70.7647 182.008 69.8601 182.251 68.7088L179.745 68.2976C179.664 68.8733 179.462 69.3667 179.138 69.6545Z" fill="#144992"/>
<path d="M187.465 70.0246C187.303 70.0246 187.141 69.9835 187.02 69.9013C186.899 69.8191 186.858 69.6957 186.818 69.5723C186.778 69.4079 186.778 68.9556 186.778 68.1743V64.2269H188.516V62.2121H186.778V58.7993L184.231 60.2796V62.2121H183.099V64.2269H184.231V68.5033C184.231 69.4079 184.272 70.0246 184.312 70.3125C184.393 70.7237 184.514 71.0526 184.676 71.3404C184.837 71.5871 185.12 71.7927 185.444 71.9572C185.807 72.1217 186.212 72.2039 186.656 72.2039C187.424 72.2039 188.071 72.0806 188.637 71.7927L188.475 69.7779C188.071 69.9424 187.707 70.0246 187.465 70.0246Z" fill="#144992"/>
<path d="M193.528 62.2944C193.204 62.5 192.881 62.9112 192.477 63.5691V62.171H190.132V71.875H192.638V68.8734C192.638 67.2286 192.719 66.1595 192.84 65.625C192.962 65.1316 193.164 64.7615 193.406 64.5559C193.649 64.3503 193.972 64.2681 194.296 64.2681C194.659 64.2681 195.023 64.3914 195.468 64.6793L196.236 62.4178C195.67 62.0888 195.185 61.9655 194.578 61.9655C194.215 62.0066 193.851 62.0888 193.528 62.2944Z" fill="#144992"/>
<path d="M199.914 62.171H197.367V71.9161H199.914V62.171Z" fill="#144992"/>
<path d="M207.755 69.6546C207.472 69.9425 207.068 70.1069 206.583 70.1069C205.936 70.1069 205.451 69.8602 205.047 69.4079C204.683 68.9145 204.481 68.0921 204.481 66.9408C204.481 65.9129 204.643 65.1727 205.047 64.7204C205.411 64.2681 205.936 64.0625 206.543 64.0625C206.987 64.0625 207.391 64.1859 207.674 64.4326C207.998 64.6793 208.159 65.0494 208.24 65.5428L210.746 65.0905C210.463 64.0625 209.938 63.2813 209.291 62.7879C208.604 62.2944 207.674 62.0477 206.502 62.0477C205.087 62.0477 203.956 62.5 203.147 63.4046C202.339 64.3092 201.894 65.5428 201.894 67.1464C201.894 68.75 202.339 69.9836 203.147 70.8882C203.996 71.7928 205.087 72.2451 206.502 72.2451C207.715 72.2451 208.685 71.9573 209.412 71.3405C210.14 70.7648 210.625 69.8602 210.908 68.7089L208.402 68.2977C208.281 68.8734 208.078 69.3668 207.755 69.6546Z" fill="#144992"/>
<path d="M215.192 62.171H212.686V71.9161H215.192V62.171Z" fill="#144992"/>
<path d="M221.215 70.0246C221.053 70.0246 220.891 69.9835 220.77 69.9013C220.649 69.8191 220.568 69.6957 220.528 69.5723C220.487 69.4079 220.487 68.9556 220.487 68.1743V64.2269H222.225V62.2121H220.487V58.7993L217.941 60.2796V62.2121H216.769V64.2269H217.941V68.5033C217.941 69.4079 217.981 70.0246 218.022 70.3125C218.102 70.7237 218.183 71.0526 218.345 71.3404C218.547 71.5871 218.79 71.7927 219.153 71.9572C219.517 72.1217 219.921 72.2039 220.366 72.2039C221.093 72.2039 221.781 72.0806 222.346 71.7927L222.185 69.7779C221.781 69.9424 221.417 70.0246 221.215 70.0246Z" fill="#144992"/>
<path d="M227.641 69.0789L225.378 62.171H222.71L226.308 71.9161C226.146 72.4506 225.944 72.9029 225.661 73.273C225.418 73.6019 224.974 73.8075 224.408 73.8075C224.085 73.8075 223.721 73.7664 223.317 73.6842L223.559 75.699C224.004 75.7812 224.489 75.8635 224.974 75.8635C225.459 75.8635 225.863 75.8223 226.267 75.699C226.671 75.5756 226.954 75.4523 227.237 75.2467C227.48 75.0411 227.722 74.7944 227.924 74.5065C228.126 74.2187 228.329 73.8075 228.571 73.2319L229.218 71.5049L232.573 62.171H229.945L227.641 69.0789Z" fill="#144992"/>
<path d="M246.598 69.12C246.073 69.5723 245.466 69.819 244.779 69.819C243.85 69.819 243.041 69.449 242.435 68.75C241.869 68.051 241.546 66.8174 241.546 65.1315C241.546 63.5279 241.869 62.3766 242.435 61.6365C243.041 60.9375 243.85 60.5674 244.82 60.5674C245.507 60.5674 246.113 60.773 246.638 61.1842C247.164 61.5954 247.447 62.1299 247.609 62.8289L250.236 62.171C249.953 61.1019 249.468 60.2796 248.902 59.745C247.891 58.7582 246.558 58.2648 244.941 58.2648C243.082 58.2648 241.626 58.8815 240.454 60.1151C239.323 61.3487 238.757 63.0756 238.757 65.296C238.757 67.3931 239.323 69.0789 240.454 70.2713C241.586 71.4638 243.001 72.0806 244.779 72.0806C246.194 72.0806 247.366 71.7105 248.296 71.0115C249.225 70.2713 249.872 69.2023 250.276 67.722L247.689 66.8996C247.487 67.9687 247.123 68.6677 246.598 69.12Z" fill="#144992"/>
<path d="M258.522 69.2846C258.077 69.8191 257.511 70.0658 256.865 70.0658C256.218 70.0658 255.652 69.8191 255.207 69.2846C254.763 68.7911 254.52 68.051 254.52 67.0642C254.52 66.1184 254.722 65.3372 255.207 64.8438C255.652 64.3503 256.218 64.1036 256.865 64.1036C257.511 64.1036 258.077 64.3503 258.522 64.8438C258.966 65.3372 259.209 66.1184 259.209 67.0642C259.168 68.051 258.966 68.7911 258.522 69.2846ZM256.824 62.0066C255.895 62.0066 255.046 62.2122 254.278 62.6234C253.51 63.0346 252.944 63.6513 252.54 64.4326C252.136 65.2138 251.893 66.0773 251.893 66.9408C251.893 68.051 252.095 68.9967 252.54 69.778C252.944 70.5592 253.55 71.1349 254.359 71.5461C255.167 71.9572 256.016 72.1628 256.865 72.1628C258.279 72.1628 259.451 71.6694 260.381 70.6826C261.311 69.6957 261.796 68.5033 261.796 67.023C261.796 65.5839 261.351 64.3503 260.421 63.4046C259.492 62.4589 258.279 62.0066 256.824 62.0066Z" fill="#144992"/>
<path d="M276.266 62.4178C275.781 62.1299 275.174 62.0066 274.487 62.0066C273.962 62.0066 273.436 62.1299 272.951 62.4178C272.466 62.6645 272.022 63.0346 271.577 63.5691C271.294 63.0757 270.93 62.6645 270.486 62.4178C270.041 62.1711 269.516 62.0066 268.91 62.0066C267.778 62.0066 266.767 62.5 265.918 63.528V62.2122H263.574V71.9161H266.08V67.1875C266.08 66.2418 266.121 65.5839 266.282 65.1727C266.444 64.7615 266.646 64.4737 266.969 64.2681C267.293 64.0625 267.657 63.9392 268.02 63.9392C268.344 63.9392 268.586 63.9803 268.788 64.1447C268.95 64.2681 269.112 64.4737 269.192 64.7615C269.314 65.0082 269.314 65.625 269.314 66.5707V71.875H271.86V67.1875C271.86 66.2829 271.941 65.5839 272.062 65.1727C272.183 64.7615 272.386 64.4737 272.709 64.227C273.032 64.0214 273.356 63.898 273.719 63.898C274.204 63.898 274.568 64.0625 274.811 64.4326C274.972 64.7204 275.053 65.3372 275.053 66.2829V71.8339H277.6V65.625C277.6 64.6793 277.519 64.0214 277.317 63.6102C277.115 63.1579 276.751 62.7056 276.266 62.4178Z" fill="#144992"/>
<path d="M286.209 69.4079C285.805 69.9013 285.32 70.1069 284.754 70.1069C284.107 70.1069 283.622 69.8602 283.178 69.3257C282.733 68.7911 282.531 67.9688 282.531 66.8997C282.531 65.954 282.733 65.2138 283.137 64.7204C283.541 64.227 284.067 63.9803 284.673 63.9803C285.239 63.9803 285.764 64.227 286.169 64.7204C286.573 65.2138 286.775 65.954 286.775 66.9819C286.775 68.1332 286.573 68.9145 286.209 69.4079ZM285.36 62.0066C284.713 62.0066 284.148 62.1711 283.622 62.4589C283.097 62.7467 282.693 63.1168 282.369 63.6102V62.2122H280.025V75.6168H282.531V70.7237C283.016 71.2582 283.46 71.5872 283.905 71.7928C284.309 71.9984 284.794 72.1217 285.36 72.1217C286.452 72.1217 287.422 71.6694 288.19 70.7648C288.958 69.8602 289.362 68.5855 289.362 66.9819C289.362 65.3783 288.958 64.1447 288.19 63.2813C287.422 62.4589 286.492 62.0066 285.36 62.0066Z" fill="#144992"/>
<path d="M296.597 67.7632C296.597 68.3799 296.556 68.7911 296.476 69.0378C296.395 69.3668 296.193 69.6546 295.91 69.9013C295.465 70.1891 295.061 70.3536 294.616 70.3536C294.212 70.3536 293.889 70.2303 293.606 69.9424C293.323 69.6957 293.202 69.3668 293.202 69.0378C293.202 68.6678 293.363 68.3799 293.687 68.1332C293.889 67.9687 294.374 67.8454 295.061 67.6809C295.748 67.5576 296.273 67.3931 296.597 67.2697V67.7632ZM299.062 68.7089L299.103 65.7072C299.103 64.597 298.982 63.8158 298.779 63.4046C298.537 62.9934 298.173 62.6234 297.607 62.3355C297.041 62.0888 296.233 61.9655 295.061 61.9655C293.848 61.9655 292.878 62.171 292.272 62.6234C291.625 63.0757 291.221 63.7747 290.938 64.7204L293.202 65.1316C293.363 64.6793 293.565 64.3503 293.808 64.1859C294.05 64.0214 294.414 63.9391 294.859 63.9391C295.546 63.9391 295.99 64.0625 296.233 64.2681C296.476 64.4737 296.597 64.8437 296.597 65.3372V65.5839C296.152 65.7895 295.303 65.9951 294.131 66.2418C293.242 66.4062 292.636 66.6118 292.151 66.8174C291.706 67.0641 291.342 67.3931 291.1 67.8043C290.857 68.2155 290.696 68.75 290.696 69.2845C290.696 70.1069 290.978 70.8059 291.544 71.3405C292.11 71.875 292.919 72.1628 293.848 72.1628C294.414 72.1628 294.899 72.0395 295.425 71.8339C295.91 71.6283 296.354 71.2993 296.799 70.8882C296.839 70.9293 296.839 71.0115 296.88 71.176C296.961 71.5049 297.041 71.7516 297.122 71.9161H299.628C299.386 71.4638 299.264 71.0115 299.184 70.6003C299.062 70.1891 299.062 69.5724 299.062 68.7089Z" fill="#144992"/>
<path d="M309.571 63.0757C309.329 62.7467 309.005 62.5411 308.52 62.2944C308.035 62.0888 307.55 62.0066 306.984 62.0066C305.731 62.0066 304.681 62.5411 303.872 63.6102V62.1711H301.528V71.9161H304.074V67.5165C304.074 66.4474 304.115 65.7073 304.276 65.2961C304.398 64.926 304.64 64.5559 304.964 64.3092C305.287 64.0625 305.691 63.9392 306.136 63.9392C306.459 63.9392 306.742 64.0214 306.984 64.1859C307.227 64.3503 307.389 64.597 307.51 64.926C307.591 65.2138 307.672 65.9128 307.672 66.9819V71.9161H310.178V65.9128C310.178 65.1727 310.097 64.5971 310.056 64.1859C309.976 63.7336 309.814 63.4046 309.571 63.0757Z" fill="#144992"/>
<path d="M318.706 62.171L316.483 69.0789L314.179 62.171H311.511L315.109 71.9161C314.947 72.4506 314.745 72.9029 314.462 73.273C314.179 73.6019 313.735 73.8075 313.169 73.8075C312.845 73.8075 312.522 73.7664 312.118 73.6842L312.32 75.699C312.764 75.7812 313.25 75.8223 313.735 75.8223C314.22 75.8223 314.624 75.7812 315.028 75.699C315.432 75.5756 315.755 75.4112 315.998 75.2467C316.241 75.0411 316.483 74.7944 316.685 74.5065C316.887 74.2187 317.089 73.8075 317.332 73.2319L317.938 71.5049L321.293 62.171H318.706Z" fill="#144992"/>
</g>
<defs>
<clipPath id="clip0_29_3625">
<rect width="321.333" height="100" fill="white"/>
</clipPath>
</defs>
</svg>
