<svg width="387" height="119" viewBox="0 0 387 119" fill="none" xmlns="http://www.w3.org/2000/svg">
<g clip-path="url(#clip0_9_2)">
<path d="M40.5985 5.8227C49.5068 6.89918 61.3845 12.2327 68.7351 20.453C59.0966 8.56283 46.0993 0.489228 33.54 -8.12449e-05C13.1921 -0.734045 1.84981 18.8873 8.17811 43.7442C9.05434 47.2183 10.2226 50.5945 11.683 53.8729C13.6789 58.9128 16.5023 64.0016 20.1045 68.8947C22.4898 72.1241 25.1185 75.2067 27.8932 78.0447C25.8974 75.9407 24.0476 73.7388 22.3438 71.3901C5.74415 48.833 7.83736 23.9271 27.8932 16.6854C36.6555 13.5049 47.9491 14.9239 58.4638 18.4469C48.5819 11.4498 36.5581 7.0949 23.1713 11.6455C18.2547 13.3091 14.5064 16.3918 11.9264 20.453C16.1128 9.88397 25.4106 4.01225 40.5985 5.8227Z" fill="white"/>
<path d="M84.4098 52.454H84.2151C96.0928 72.1731 98.6728 92.3816 90.8842 103.146C80.2721 117.826 52.6223 109.752 29.1102 85.0909C6.13359 61.0169 -4.38112 30.0436 5.06265 14.9729C4.86793 15.2665 4.62454 15.5111 4.42982 15.8047C-6.91244 31.4626 4.28378 65.5675 29.4023 91.8923C54.5694 118.217 84.1178 126.878 95.46 111.22C104.417 98.8405 99.3057 74.9622 84.4098 52.454Z" fill="white"/>
<path d="M78.8604 42.7166C81.8298 46.3864 82.7547 50.5456 80.9049 52.1114C79.0551 53.6772 75.1121 51.9646 72.1427 48.3437C69.1732 44.7228 68.2483 40.5147 70.0981 38.9979C71.8993 37.4321 75.8423 39.0957 78.8604 42.7166Z" fill="white"/>
<path d="M114.494 43.8419C114.883 43.8419 115.37 43.9887 115.857 44.2823C116.295 44.5759 116.684 44.8695 117.074 45.1142C118.096 43.5484 118.631 42.7165 118.631 42.5697C118.631 42.0315 118.388 41.5422 117.901 41.1507C117.414 40.7104 116.879 40.5146 116.343 40.5146C114.737 40.5146 113.277 41.1997 111.865 42.5208C110.502 43.842 109.772 45.3099 109.772 46.9246C109.772 47.6096 110.21 48.0989 111.037 48.3436C111.768 48.5393 112.449 48.735 113.131 48.9308C112.4 49.3222 111.768 49.8115 111.135 50.3987C110.405 51.1816 110.015 51.8666 110.064 52.4538V52.6984C112.546 50.4476 115.467 49.2733 118.777 49.1754C119.556 48.0989 120.286 47.0225 120.871 46.0438C116.149 46.0438 113.374 45.6035 112.546 44.6738C113.423 44.1355 114.055 43.8419 114.494 43.8419Z" fill="white"/>
<path d="M141.267 43.793C141.267 42.6187 141.024 41.4443 140.537 40.221C140.05 38.9978 139.32 38.0681 138.492 37.3831L136.399 41.1507C136.837 41.5422 137.275 42.1783 137.811 43.108C138.346 44.0377 138.59 44.7716 138.59 45.2609C138.59 45.3588 138.541 45.3588 138.541 45.3588H132.408H131.191H130.46C129.73 45.3588 129.389 45.1631 129.292 44.7716C129 43.4505 128.708 41.3465 128.513 38.4106C128.367 36.2087 128.221 34.0068 128.075 31.8049C127.832 32.0007 127.394 32.5878 126.663 33.4197C125.933 34.3493 125.592 34.9365 125.592 35.0833L126.858 49.3222H131.142H132.359H140.148C140.878 49.2733 141.267 47.4139 141.267 43.793Z" fill="white"/>
<path d="M136.983 52.4048C136.107 51.6219 135.572 51.2305 135.426 51.2305C135.28 51.2305 134.793 51.6219 133.965 52.4048C133.138 53.2366 132.748 53.677 132.748 53.8238C132.748 53.9706 133.138 54.3621 133.965 54.9982C134.744 55.6343 135.28 56.0257 135.474 56.0257C137.373 54.9492 138.298 54.2153 138.298 53.8238C138.298 53.677 137.86 53.2366 136.983 52.4048Z" fill="white"/>
<path d="M163.173 43.5484C162.443 43.842 161.615 44.1356 160.885 44.4781H160.642C162.102 42.5208 163.319 41.2486 164.195 40.7104C164.292 40.955 164.292 41.1997 164.292 41.5422C164.292 42.4719 163.952 43.1569 163.173 43.5484ZM164.292 50.5455H163.465C162.881 50.5455 162.248 50.3008 161.664 49.9094C161.08 49.518 160.69 48.9797 160.398 48.3925C161.08 48.3925 161.81 48.5393 162.589 48.8818C163.416 49.2733 164 49.7137 164.244 50.2519V50.5455H164.292ZM193.257 34.594C192.088 33.909 191.504 33.3707 191.358 33.0772C191.261 32.7836 191.212 32.3432 191.163 31.8539L190.92 31.6582C190.141 32.5389 189.314 33.9579 188.389 35.9152C188.729 36.4045 189.119 36.7959 189.508 37.0406C189.703 37.5788 189.995 38.851 190.287 40.8572C190.579 42.8633 190.774 44.2334 190.774 44.9184C190.774 45.0163 190.725 45.1631 190.677 45.3099H187.902C187.318 45.3099 186.977 45.3099 186.928 45.261C186.588 45.212 186.393 45.0163 186.344 44.6738C186.198 43.793 186.052 41.6401 185.857 38.166C185.711 35.4258 185.371 33.2729 184.981 31.6582L184.835 31.5603L182.06 35.5237L183.521 45.3588H179.772H179.091C178.069 45.3588 176.608 44.3313 174.807 42.2762C173.542 40.8082 172.276 39.2914 170.962 37.8724L179.14 36.2087C179.578 34.8387 179.918 33.5175 180.211 32.2943C179.918 32.2453 176.316 32.9793 169.404 34.4962C168.722 36.2577 168.235 38.0681 167.943 39.9275L173.59 45.3588H167.943H164.536C164.974 44.3802 165.315 43.4505 165.753 42.5208C166.24 41.2486 166.483 40.27 166.483 39.6339V37.5788C165.363 37.5788 164.098 38.2149 162.735 39.4871C161.518 40.5636 160.593 41.6401 159.911 42.8633C159.425 43.9888 159.035 44.8206 158.84 45.4567H157.623H156.942C155.433 45.4567 154.313 44.9184 153.486 43.8909C152.755 42.8144 152.025 41.689 151.344 40.6125C151.149 40.8572 150.76 41.4443 150.175 42.423C149.591 43.4016 149.299 43.9398 149.299 44.0866C149.299 44.1355 149.64 44.6249 150.322 45.5545C151.003 46.4842 151.392 47.1203 151.392 47.5118C151.392 48.3925 150.37 49.469 148.374 50.7902C146.427 52.1602 144.869 52.8453 143.847 52.8453C143.214 52.8453 142.387 52.6006 141.559 52.0624C140.683 51.5731 140.294 51.3284 140.391 51.3284C140.245 51.3284 140.196 51.3284 140.196 51.4263V51.8666C140.829 52.6006 142.046 53.3835 143.701 54.2643C145.405 55.0961 146.719 55.4875 147.595 55.4875C148.91 55.4875 150.127 54.7046 151.198 53.1388C151.977 51.7688 152.707 50.4476 153.437 49.1265L153.632 48.9308C154.216 49.2244 154.703 49.3712 155.043 49.3712H156.066H157.672H157.721C157.818 49.3712 158.11 49.8115 158.548 50.6923C159.132 51.8177 159.668 52.6495 160.106 53.1878C160.836 54.0685 161.615 54.5089 162.345 54.5089C164.292 54.5089 165.802 52.7963 166.921 49.3712H173.785L175.294 46.9246L177.923 49.3712H180.892H182.45L183.715 46.9735C183.764 47.4139 183.813 47.9032 183.813 48.3436C183.91 49.0286 184.105 49.3712 184.397 49.3712H186.977H188.097H191.796C192.137 49.1754 192.332 49.0776 192.38 48.9797C192.526 48.784 192.77 48.05 193.013 46.8267C193.305 45.5545 193.403 44.8206 193.354 44.527L192.77 39.4871L195.593 35.8173C194.912 35.5237 194.133 35.1323 193.257 34.594Z" fill="white"/>
<path d="M207.666 33.8113C209.321 34.8388 210.294 35.3281 210.635 35.3281C210.781 35.3281 211.122 34.9856 211.706 34.2516C212.242 33.6155 212.582 33.1751 212.777 32.8816L209.759 31.2668C208.445 32.2455 207.812 32.7837 207.86 32.7837C207.422 32.7837 206.546 32.2944 205.134 31.2668C203.917 32.588 203.236 33.3709 202.992 33.6645C204.258 34.4963 205.28 34.9856 206.011 35.2302C206.838 34.4963 207.422 34.007 207.666 33.8113Z" fill="white"/>
<path d="M223.876 52.5518C223.438 53.0411 223.146 53.2858 222.951 53.2858C222.708 53.2858 221.831 52.7965 220.371 51.7689C219.641 52.6007 219.008 53.4326 218.424 54.2644C219.008 54.8026 219.933 55.3898 221.198 56.0259C221.929 55.2919 222.464 54.7048 222.805 54.4112L225.531 56.0259C226.164 55.4877 226.845 54.7048 227.575 53.4815L224.752 51.72C224.655 51.8178 224.363 52.0625 223.876 52.5518Z" fill="white"/>
<path d="M209.029 43.2549C209.564 42.8145 210.002 42.472 210.392 42.3252C211.171 41.5913 211.706 41.0041 211.998 40.5148L212.68 43.7442L209.029 43.2549ZM224.46 41.1998C225.482 42.6188 226.212 43.9889 226.699 45.31H219.251H217.986H217.402C216.428 45.31 215.892 45.0164 215.698 44.4293C215.357 43.4017 214.968 41.6891 214.578 39.2915C214.14 36.5024 213.799 34.692 213.556 33.8602L213.361 33.7134L211.219 37.4321C211.317 37.7746 211.414 38.1661 211.56 38.5575C210.246 39.2915 208.931 40.0255 207.617 40.8084C206.692 41.3955 206.059 42.0806 205.572 42.9124C205.134 43.6953 204.648 45.1632 204.112 47.3162L210.635 48.4905C210.976 48.5394 211.365 48.148 211.852 47.3162C212.436 46.2886 212.728 45.7015 212.923 45.5547C213.166 46.3376 213.41 47.1205 213.653 47.9033C214.091 48.833 214.627 49.2734 215.454 49.2734H217.937H219.203H228.452C228.987 46.4843 229.231 44.625 229.231 43.6464C229.231 41.9338 228.306 39.9276 226.456 37.6768L224.46 41.1998Z" fill="white"/>
<path d="M235.705 36.7959L234.439 40.955C235.169 41.0529 235.997 41.6401 237.117 42.6187C238.188 43.6462 238.723 44.4781 238.723 45.1631C238.723 45.212 238.723 45.2609 238.674 45.3099H231.616L231.275 49.2733H239.989C240.768 49.2733 241.206 47.9032 241.206 45.1142C241.157 41.1997 239.356 38.4106 235.705 36.7959Z" fill="white"/>
<path d="M250.357 45.3099C249.286 45.3099 248.605 44.9185 248.167 44.2335C248.216 44.1845 248.216 44.1356 248.167 44.0867C248.118 43.8909 248.264 43.6463 248.605 43.3527C248.946 43.0591 249.189 42.8634 249.335 42.8634C249.725 42.8634 250.065 43.157 250.406 43.7441C250.455 43.7931 250.649 44.2824 251.088 45.1142C250.844 45.2121 250.601 45.3099 250.357 45.3099ZM291.491 34.5941C290.323 33.909 289.69 33.3708 289.593 33.0772C289.447 32.7836 289.398 32.3432 289.398 31.8539L289.155 31.6582C288.376 32.539 287.548 33.909 286.623 35.9152C287.013 36.4045 287.354 36.7959 287.743 37.0406C287.938 37.5788 288.23 38.8511 288.522 40.8572C288.863 42.8634 289.009 44.2335 289.009 44.9185C289.009 45.0163 288.96 45.1631 288.911 45.3099H286.38H285.455C284.336 45.3099 283.751 44.527 283.751 43.0591C283.8 42.9612 283.8 42.7655 283.8 42.5209C283.8 42.2762 283.751 42.0805 283.751 41.9826C283.751 41.3465 283.703 40.8572 283.605 40.4168C283.313 40.6126 282.875 41.1019 282.194 41.8848C281.512 42.7166 281.22 43.2548 281.22 43.5484C281.22 43.6952 281.269 43.8909 281.317 44.1845C281.366 44.4781 281.415 44.6738 281.415 44.8206C281.415 44.9674 281.317 45.1142 281.22 45.261C279.516 45.1631 278.64 45.1631 278.494 45.261C278.883 43.5484 279.078 41.9826 279.078 40.4658C279.078 40.3679 279.029 40.1722 278.981 40.0743C278.591 40.4168 278.056 41.004 277.423 41.8848C276.693 42.8634 276.352 43.5484 276.352 43.8909C276.352 44.576 276.206 45.0163 276.011 45.2121H274.648H273.139H272.799C273.529 43.108 273.918 41.738 273.918 41.0529L273.821 40.1233C273.48 40.27 272.945 40.7594 272.263 41.5423C271.533 42.3741 271.192 42.9123 271.192 43.2548C271.192 43.9399 271.046 44.576 270.754 45.1631H267.785H266.665H265.448C265.74 44.7228 265.983 44.2824 266.178 43.8909C266.519 43.3527 266.665 42.9123 266.665 42.5698C266.665 41.5912 266.129 40.7104 265.059 39.9765C264.085 39.2914 263.063 38.9489 262.04 38.9489C260.385 38.9489 259.12 39.3404 258.341 40.2211C257.854 40.7104 257.27 41.8358 256.442 43.6952C257.27 43.5974 257.659 43.5484 257.757 43.5484C258.876 43.5484 259.85 44.0867 260.58 45.1142H256.053H254.592H253.96C253.327 40.9551 252.207 38.8511 250.552 38.8511C249.481 38.8511 248.459 39.8786 247.388 41.8848C246.463 43.6952 245.976 45.1631 245.976 46.2885C245.976 47.365 246.609 48.099 247.777 48.4904C247.923 48.5394 248.994 48.784 250.893 49.1265C250.017 49.9584 248.946 50.7413 247.729 51.4263C246.317 52.1603 245.051 52.5517 244.029 52.5517C243.737 52.5517 243.202 52.4538 242.471 52.2581C241.741 52.0624 241.254 51.9645 240.865 51.9645C240.768 51.9645 240.67 52.0135 240.573 52.1113V52.4538C241.157 53.1878 242.179 53.775 243.542 54.3132C244.857 54.8025 246.025 55.0961 247.047 55.0961C248.264 55.0961 249.579 54.3622 250.893 52.9432C251.915 51.8177 252.743 50.5455 253.376 49.1265H254.592H256.102H261.018C261.554 48.3436 261.943 47.7075 262.186 47.3161C262.673 48.099 263.014 48.7351 263.257 49.1265H266.665H267.785H269.829C270.024 49.1265 270.267 48.9798 270.559 48.6862C270.851 48.3926 270.997 48.1969 271.095 48.099C271.289 48.4415 271.436 48.833 271.436 49.1265H273.091H274.6H275.719C275.719 49.1265 275.914 49.0287 276.109 48.833C276.303 48.5883 276.449 48.4904 276.547 48.4904C276.693 48.4904 276.936 48.7351 277.228 49.1265H282.096C282.388 48.6862 282.632 48.3437 282.826 48.099C283.021 48.5394 283.216 48.8819 283.313 49.1265H285.066H286.331H289.836C290.177 48.9308 290.372 48.833 290.42 48.784C290.566 48.5883 290.81 47.8543 291.053 46.6311C291.297 45.3589 291.443 44.6249 291.394 44.3313L291.005 39.3893L293.828 35.7195C293.146 35.5237 292.416 35.1323 291.491 34.5941Z" fill="white"/>
<path d="M296.797 37.8725L298.404 49.567C299.815 47.9034 300.497 45.8483 300.497 43.4017C300.497 41.2488 300.156 37.8725 299.426 33.1262C298.16 34.9367 297.284 36.5514 296.797 37.8725Z" fill="white"/>
<path d="M314.225 33.8113C315.88 34.8388 316.853 35.3281 317.194 35.3281C317.34 35.3281 317.729 34.9856 318.314 34.2516C318.849 33.6155 319.19 33.1751 319.336 32.8816L316.318 31.2668C315.003 32.2455 314.371 32.7837 314.419 32.7837C314.03 32.7837 313.105 32.2944 311.693 31.2668C310.476 32.588 309.746 33.3709 309.6 33.6645C310.866 34.4963 311.888 34.9856 312.569 35.2302C313.446 34.4963 313.981 34.007 314.225 33.8113Z" fill="white"/>
<path d="M315.588 43.2549C316.172 42.8145 316.61 42.472 316.951 42.3252C317.729 41.5912 318.265 41.004 318.557 40.5147L319.238 43.7442L315.588 43.2549ZM333.307 41.1508C331.895 40.0254 330.435 38.9 329.072 37.7746C332.479 36.6981 335.059 35.9152 336.763 35.4259C337.201 33.958 337.542 32.6368 337.785 31.4136L326.394 34.7898C326.2 35.6216 326.005 36.4045 325.81 37.1874C325.518 38.166 325.421 38.9489 325.421 39.5361C325.421 39.7318 325.859 40.319 326.735 41.1998C327.611 42.1294 328.195 42.5698 328.39 42.5698C328.682 42.5698 328.877 42.423 328.974 42.1294L333.015 45.261H325.81H323.96C323.035 45.261 322.5 44.9674 322.257 44.3803C321.916 43.3527 321.575 41.6401 321.137 39.2425C320.699 36.4535 320.358 34.5941 320.163 33.8112L319.969 33.6644L317.778 37.3831C317.827 37.7257 317.973 38.1171 318.119 38.5086C316.805 39.2915 315.49 39.9765 314.176 40.7594C313.3 41.3466 312.618 42.0316 312.18 42.8634C311.742 43.6463 311.255 45.1142 310.72 47.2672L317.291 48.4415C317.583 48.4905 318.021 48.099 318.508 47.2183C319.044 46.1907 319.385 45.6035 319.579 45.5057C319.823 46.2886 320.066 47.0715 320.309 47.8544C320.699 48.7841 321.332 49.2244 322.111 49.2244H323.96H325.81H335.205C335.984 46.729 336.374 45.31 336.374 44.9185C336.471 44.2824 335.4 43.0102 333.307 41.1508Z" fill="white"/>
<path d="M362.417 36.9428L365.484 38.4597C366.652 37.6278 367.431 36.796 367.674 36.062L364.559 34.3005C364.218 34.6431 363.926 34.8877 363.585 35.2302C363.001 35.7195 362.709 35.9642 362.66 35.9642C362.271 35.9642 361.346 35.4749 359.934 34.3984C358.815 35.426 358.036 36.2578 357.646 36.796C359.448 37.8725 360.47 38.4107 360.713 38.4107C360.665 38.4107 361.249 37.9214 362.417 36.9428Z" fill="white"/>
<path d="M361.249 34.0557C361.882 34.594 362.271 34.8876 362.368 34.8876C362.563 34.8876 363.001 34.6429 363.585 34.1047C364.072 33.6643 364.413 33.3218 364.559 33.0771C363.293 31.8049 362.563 31.1688 362.368 31.1199C360.957 32.1964 360.226 32.8325 360.226 33.126C360.275 33.175 360.567 33.5175 361.249 34.0557Z" fill="white"/>
<path d="M377.167 34.5941C375.998 33.909 375.366 33.3708 375.268 33.0772C375.122 32.7836 375.074 32.3432 375.074 31.8539L374.879 31.6582C374.1 32.539 373.224 33.958 372.348 35.9152C372.688 36.4045 373.078 36.7959 373.418 37.0406C373.662 37.5788 373.905 38.8511 374.197 40.8572C374.489 42.8634 374.684 44.2335 374.684 44.9185C374.684 45.0163 374.635 45.1631 374.538 45.261H372.055H371.082C369.962 45.261 369.427 44.4781 369.427 43.0102C369.427 42.9123 369.475 42.7166 369.475 42.4719C369.475 42.2273 369.475 42.0316 369.427 41.9337C369.427 41.2976 369.378 40.8083 369.281 40.4168C368.989 40.6126 368.502 41.1019 367.869 41.8848C367.236 42.7166 366.895 43.2548 366.895 43.5484C366.895 43.6952 366.944 43.8909 366.993 44.1845C367.09 44.4781 367.09 44.6738 367.09 44.8206C367.09 44.9674 367.041 45.1142 366.895 45.261C365.24 45.1631 364.315 45.1631 364.169 45.261C364.559 43.5973 364.754 41.9826 364.754 40.4658C364.754 40.3679 364.705 40.2211 364.656 40.0743C364.267 40.4168 363.78 41.004 363.098 41.8848C362.368 42.9123 362.028 43.5484 362.028 43.8909C362.028 44.527 361.881 45.0163 361.687 45.2121H360.275H358.766H358.474C359.204 43.108 359.545 41.738 359.545 41.0529L359.448 40.1233C359.107 40.27 358.571 40.7594 357.89 41.5423C357.208 42.3741 356.868 42.9123 356.868 43.2548C356.868 43.9399 356.721 44.576 356.381 45.1631H353.509H352.925C351.415 45.1631 350.296 44.6249 349.468 43.5973C348.787 42.5209 348.057 41.3955 347.326 40.319C347.132 40.5636 346.742 41.1508 346.158 42.1294C345.574 43.108 345.331 43.6463 345.331 43.7931C345.331 43.842 345.671 44.3313 346.353 45.261C347.034 46.1907 347.424 46.8268 347.424 47.2182C347.424 48.099 346.401 49.1755 344.406 50.4966C342.41 51.8667 340.901 52.5517 339.878 52.5517C339.197 52.5517 338.418 52.3071 337.591 51.7688C336.714 51.2795 336.325 51.0349 336.374 51.0349C336.228 51.0349 336.179 51.0348 336.179 51.1327V51.5731C336.812 52.3071 337.98 53.09 339.684 53.9707C341.388 54.8025 342.653 55.2429 343.529 55.2429C344.892 55.2429 346.109 54.46 347.229 52.8942C347.959 51.5242 348.738 50.203 349.468 48.9308L349.663 48.7351C350.296 49.0287 350.734 49.1755 351.075 49.1755H352.486H353.703H355.651C355.845 49.1755 356.089 49.0287 356.381 48.7351C356.624 48.4415 356.819 48.2458 356.916 48.1479C357.111 48.5394 357.257 48.8819 357.257 49.1755H358.961H360.47H361.541C361.638 49.1755 361.735 49.0776 361.979 48.8819C362.174 48.6372 362.32 48.5394 362.368 48.5394C362.563 48.5394 362.758 48.784 363.098 49.1755H367.918C368.21 48.7351 368.502 48.3926 368.648 48.1479C368.843 48.5883 369.037 48.9308 369.135 49.1755H370.838H372.153H375.658C375.998 48.9798 376.193 48.8819 376.242 48.833C376.388 48.6372 376.631 47.9033 376.875 46.68C377.167 45.4078 377.264 44.6738 377.215 44.3802L376.777 39.4382L379.601 35.8173C378.871 35.5237 378.092 35.1323 377.167 34.5941Z" fill="white"/>
<path d="M385.15 33.1262C383.836 34.9856 382.911 36.5514 382.473 37.9215L384.128 49.6159C385.54 47.9523 386.221 45.8972 386.221 43.4506C386.221 41.2488 385.88 37.8236 385.15 33.1262Z" fill="white"/>
<path d="M166.872 69.5798H163.854V72.4178H166.872V69.5798Z" fill="white"/>
<path d="M240.768 69.5798H237.701V72.4178H240.768V69.5798Z" fill="white"/>
<path d="M259.168 69.5798H256.15V72.4178H259.168V69.5798Z" fill="white"/>
<path d="M119.459 76.7726C118.729 76.3812 117.56 75.9897 116.003 75.6472C114.445 75.2557 113.471 74.9132 113.082 74.5707C112.79 74.2771 112.595 73.9835 112.595 73.5921C112.595 73.2006 112.741 72.8581 113.082 72.6135C113.617 72.222 114.348 72.0263 115.272 72.0263C116.149 72.0263 116.879 72.222 117.268 72.5645C117.706 72.9071 117.998 73.4942 118.145 74.3261L121.357 74.2282C121.309 72.7603 120.773 71.5859 119.751 70.7052C118.729 69.8244 117.268 69.384 115.272 69.384C114.055 69.384 113.033 69.5798 112.157 69.9712C111.329 70.3627 110.648 70.9009 110.21 71.5859C109.723 72.271 109.48 73.0539 109.48 73.8857C109.48 75.1579 109.966 76.1854 110.94 77.0662C111.622 77.7023 112.838 78.1916 114.542 78.632C115.905 78.9256 116.733 79.1702 117.074 79.317C117.609 79.5127 117.998 79.7574 118.242 80.002C118.437 80.2467 118.534 80.5892 118.534 80.9317C118.534 81.5189 118.291 82.0082 117.755 82.4486C117.22 82.889 116.441 83.0847 115.418 83.0847C114.445 83.0847 113.715 82.84 113.082 82.3507C112.546 81.8614 112.157 81.0785 111.962 80.002L108.847 80.2956C109.042 82.1061 109.674 83.4272 110.745 84.4058C111.816 85.3355 113.374 85.8248 115.37 85.8248C116.733 85.8248 117.901 85.6291 118.777 85.2376C119.702 84.8462 120.432 84.259 120.968 83.4761C121.455 82.6932 121.698 81.8125 121.698 80.9317C121.698 79.9531 121.503 79.0724 121.065 78.3873C120.773 77.7023 120.189 77.213 119.459 76.7726Z" fill="white"/>
<path d="M130.85 80.638C130.85 81.372 130.801 81.8613 130.704 82.1549C130.606 82.5463 130.363 82.8889 129.974 83.1824C129.487 83.525 128.951 83.7207 128.416 83.7207C127.929 83.7207 127.491 83.5739 127.199 83.2314C126.907 82.9378 126.712 82.5463 126.712 82.1549C126.712 81.7145 126.955 81.372 127.296 81.0784C127.54 80.8827 128.075 80.7359 128.951 80.5402C129.779 80.3934 130.363 80.1977 130.801 80.0509V80.638H130.85ZM133.819 81.7634L133.868 78.1915C133.868 76.8704 133.722 75.9407 133.478 75.4514C133.186 74.962 132.748 74.5217 132.067 74.1792C131.434 73.8856 130.412 73.7388 129.049 73.7388C127.54 73.7388 126.42 73.9834 125.69 74.5217C124.96 75.0599 124.424 75.8917 124.083 77.0171L126.809 77.5064C127.004 76.9682 127.248 76.5768 127.588 76.381C127.88 76.1853 128.318 76.0875 128.854 76.0875C129.633 76.0875 130.168 76.2342 130.509 76.4789C130.801 76.7236 130.947 77.1639 130.947 77.7511V78.0447C130.412 78.2893 129.438 78.534 127.978 78.8276C126.955 79.0233 126.128 79.268 125.592 79.5126C125.057 79.8062 124.619 80.1976 124.278 80.687C123.937 81.1763 123.791 81.8124 123.791 82.4485C123.791 83.4271 124.132 84.2589 124.814 84.895C125.495 85.5311 126.42 85.8736 127.588 85.8736C128.27 85.8736 128.854 85.7268 129.487 85.4822C130.071 85.2375 130.606 84.8461 131.142 84.3568C131.142 84.4057 131.191 84.5036 131.239 84.6993C131.337 85.0907 131.434 85.3843 131.531 85.5801H134.549C134.306 85.0418 134.111 84.5036 134.014 84.0143C133.868 83.525 133.819 82.791 133.819 81.7634Z" fill="white"/>
<path d="M144.237 78.9256C144.237 80.5892 144.188 81.6168 143.993 82.0571C143.847 82.4975 143.555 82.84 143.166 83.1336C142.728 83.4272 142.289 83.574 141.754 83.574C141.316 83.574 140.926 83.4761 140.586 83.2315C140.294 83.0358 140.099 82.7422 139.953 82.3997C139.855 82.0082 139.807 80.9807 139.807 79.3659V74.0325H136.789V81.3721C136.789 82.4486 136.886 83.3293 137.178 83.9165C137.47 84.5037 137.86 85.0419 138.492 85.3844C139.125 85.727 139.807 85.9227 140.586 85.9227C141.316 85.9227 142.095 85.727 142.776 85.3844C143.458 84.993 143.993 84.5037 144.431 83.9165V85.6291H147.255V74.0325H144.237V78.9256Z" fill="white"/>
<path d="M157.137 82.5466C156.65 83.1337 156.017 83.4273 155.335 83.4273C154.459 83.4273 153.778 83.0359 153.291 82.2041C152.95 81.6658 152.755 80.7361 152.755 79.5129C152.755 78.3385 152.999 77.4578 153.486 76.9195C153.972 76.3323 154.605 76.0388 155.287 76.0388C156.017 76.0388 156.601 76.3323 157.088 76.9195C157.575 77.5067 157.818 78.4853 157.818 79.8064C157.867 81.0786 157.623 81.9594 157.137 82.5466ZM157.867 75.4027C156.942 74.3262 155.822 73.7879 154.557 73.7879C153.145 73.7879 151.977 74.3262 151.1 75.3048C150.175 76.3323 149.737 77.8492 149.737 79.8064C149.737 81.7147 150.175 83.2316 151.149 84.3081C152.074 85.3846 153.194 85.9228 154.508 85.9228C155.141 85.9228 155.822 85.7271 156.455 85.3846C157.088 85.042 157.623 84.5527 158.11 83.9166V85.6292H160.934V69.6777H157.915V75.4027H157.867Z" fill="white"/>
<path d="M166.872 73.9836H163.854V85.5803H166.872V73.9836Z" fill="white"/>
<path d="M179.383 78.5342H187.366V75.843H179.383V72.32H187.902V69.5798H176.219V85.5802H188.243V82.8401H179.383V78.5342Z" fill="white"/>
<path d="M193.938 69.5798H190.92V85.5313H193.938V69.5798Z" fill="white"/>
<path d="M199.39 78.8277C199.39 77.9959 199.585 77.3109 200.023 76.8216C200.461 76.2833 200.997 76.0876 201.678 76.0876C202.311 76.0876 202.846 76.2833 203.285 76.7726C203.723 77.213 203.966 77.898 203.966 78.8277H199.39ZM205.524 75.5004C204.55 74.375 203.187 73.7878 201.483 73.7878C199.974 73.7878 198.709 74.3261 197.686 75.4515C196.713 76.528 196.226 77.9959 196.226 79.9531C196.226 81.5679 196.615 82.889 197.346 83.9165C198.319 85.2377 199.78 85.8738 201.775 85.8738C203.09 85.8738 204.112 85.5802 204.94 84.993C205.767 84.4058 206.4 83.574 206.789 82.4486L203.771 81.9593C203.625 82.5465 203.333 82.9869 203.041 83.2315C202.749 83.5251 202.311 83.623 201.824 83.623C201.143 83.623 200.558 83.3783 200.072 82.889C199.585 82.3997 199.342 81.6657 199.342 80.785H206.887C206.935 78.3384 206.497 76.6258 205.524 75.5004Z" fill="white"/>
<path d="M215.746 82.8889C215.406 83.2314 214.919 83.4271 214.335 83.4271C213.556 83.4271 212.972 83.1335 212.534 82.5953C212.095 82.0081 211.852 81.0295 211.852 79.6595C211.852 78.4362 212.095 77.5554 212.534 77.0172C212.972 76.4789 213.556 76.2343 214.335 76.2343C214.87 76.2343 215.357 76.3811 215.698 76.6747C216.038 76.9683 216.282 77.4086 216.379 77.9958L219.397 77.4576C219.008 76.2343 218.472 75.3046 217.596 74.7174C216.769 74.1303 215.698 73.8367 214.237 73.8367C212.534 73.8367 211.171 74.3749 210.197 75.4514C209.175 76.5279 208.688 77.9958 208.688 79.9041C208.688 81.8124 209.175 83.2803 210.197 84.3568C211.171 85.4333 212.534 85.9715 214.189 85.9715C215.649 85.9715 216.817 85.629 217.694 84.8951C218.57 84.21 219.203 83.1336 219.495 81.7635L216.477 81.2742C216.379 81.9592 216.136 82.5464 215.746 82.8889Z" fill="white"/>
<path d="M225.774 83.3293C225.58 83.3293 225.385 83.2804 225.239 83.1825C225.093 83.0847 225.044 82.9379 224.995 82.7911C224.947 82.5954 224.947 82.0571 224.947 81.1274V76.4301H227.04V74.0325H224.947V69.9712L221.88 71.7327V74.0325H220.517V76.4301H221.88V81.5189C221.88 82.5954 221.929 83.3293 221.977 83.6718C222.075 84.1612 222.221 84.5526 222.415 84.8951C222.61 85.1887 222.951 85.4334 223.34 85.6291C223.778 85.8248 224.265 85.9227 224.801 85.9227C225.726 85.9227 226.505 85.7759 227.186 85.4334L226.991 83.0357C226.505 83.2315 226.066 83.3293 225.774 83.3293Z" fill="white"/>
<path d="M233.076 74.1302C232.687 74.3749 232.297 74.8642 231.811 75.6471V73.9834H228.987V85.5311H232.005V81.9592C232.005 80.0019 232.103 78.7297 232.249 78.0936C232.395 77.5065 232.638 77.0661 232.93 76.8214C233.222 76.5768 233.612 76.4789 234.001 76.4789C234.439 76.4789 234.877 76.6257 235.413 76.9682L236.338 74.277C235.656 73.8856 235.072 73.7388 234.342 73.7388C233.904 73.7877 233.466 73.8856 233.076 74.1302Z" fill="white"/>
<path d="M240.768 73.9836H237.701V85.5803H240.768V73.9836Z" fill="white"/>
<path d="M250.211 82.8889C249.871 83.2314 249.384 83.4271 248.8 83.4271C248.021 83.4271 247.437 83.1335 246.95 82.5953C246.512 82.0081 246.268 81.0295 246.268 79.6595C246.268 78.4362 246.463 77.5554 246.95 77.0172C247.388 76.4789 248.021 76.2343 248.751 76.2343C249.286 76.2343 249.773 76.3811 250.114 76.6747C250.503 76.9683 250.698 77.4086 250.795 77.9958L253.814 77.4576C253.473 76.2343 252.84 75.3046 252.061 74.7174C251.234 74.1303 250.114 73.8367 248.702 73.8367C246.998 73.8367 245.635 74.3749 244.662 75.4514C243.688 76.5279 243.153 77.9958 243.153 79.9041C243.153 81.8124 243.688 83.2803 244.662 84.3568C245.684 85.4333 246.998 85.9715 248.702 85.9715C250.163 85.9715 251.331 85.629 252.207 84.8951C253.083 84.21 253.668 83.1336 254.008 81.7635L250.99 81.2742C250.844 81.9592 250.601 82.5464 250.211 82.8889Z" fill="white"/>
<path d="M259.168 73.9836H256.15V85.5803H259.168V73.9836Z" fill="white"/>
<path d="M266.421 83.3293C266.227 83.3293 266.032 83.2804 265.886 83.1825C265.74 83.0847 265.643 82.9379 265.594 82.7911C265.545 82.5954 265.545 82.0571 265.545 81.1274V76.4301H267.638V74.0325H265.545V69.9712L262.478 71.7327V74.0325H261.067V76.4301H262.478V81.5189C262.478 82.5954 262.527 83.3293 262.576 83.6718C262.673 84.1612 262.771 84.5526 262.965 84.8951C263.209 85.1887 263.501 85.4334 263.939 85.6291C264.377 85.8248 264.864 85.9227 265.399 85.9227C266.275 85.9227 267.103 85.7759 267.785 85.4334L267.59 83.0357C267.103 83.2315 266.665 83.3293 266.421 83.3293Z" fill="white"/>
<path d="M274.162 82.204L271.435 73.9836H268.223L272.555 85.5803C272.36 86.2164 272.117 86.7546 271.776 87.195C271.484 87.5864 270.949 87.8311 270.267 87.8311C269.878 87.8311 269.44 87.7822 268.953 87.6843L269.245 90.0819C269.78 90.1798 270.365 90.2776 270.949 90.2776C271.533 90.2776 272.02 90.2287 272.506 90.0819C272.993 89.9351 273.334 89.7883 273.675 89.5437C273.967 89.299 274.259 89.0054 274.502 88.6629C274.746 88.3204 274.989 87.8311 275.281 87.1461L276.06 85.091L280.1 73.9836H276.936L274.162 82.204Z" fill="white"/>
<path d="M296.992 82.253C296.359 82.7912 295.629 83.0848 294.802 83.0848C293.682 83.0848 292.708 82.6444 291.978 81.8126C291.297 80.9808 290.907 79.5128 290.907 77.5067C290.907 75.5984 291.297 74.2283 291.978 73.3475C292.708 72.5157 293.682 72.0753 294.85 72.0753C295.678 72.0753 296.408 72.32 297.041 72.8093C297.674 73.2986 298.014 73.9347 298.209 74.7665L301.373 73.9836C301.032 72.7114 300.448 71.7328 299.767 71.0967C298.55 69.9224 296.943 69.3352 294.996 69.3352C292.757 69.3352 291.005 70.0692 289.593 71.5371C288.23 73.005 287.548 75.0601 287.548 77.7024C287.548 80.1979 288.23 82.204 289.593 83.623C290.956 85.042 292.66 85.776 294.802 85.776C296.505 85.776 297.917 85.3356 299.037 84.5038C300.156 83.623 300.935 82.3508 301.422 80.5893L298.306 79.6107C298.063 80.8829 297.625 81.7147 296.992 82.253Z" fill="white"/>
<path d="M311.352 82.4486C310.817 83.0847 310.135 83.3783 309.357 83.3783C308.578 83.3783 307.896 83.0847 307.361 82.4486C306.825 81.8614 306.533 80.9807 306.533 79.8063C306.533 78.6809 306.777 77.7512 307.361 77.1641C307.896 76.5769 308.578 76.2833 309.357 76.2833C310.135 76.2833 310.817 76.5769 311.352 77.1641C311.888 77.7512 312.18 78.6809 312.18 79.8063C312.131 80.9807 311.888 81.8614 311.352 82.4486ZM309.308 73.7878C308.188 73.7878 307.166 74.0325 306.241 74.5218C305.316 75.0111 304.635 75.7451 304.148 76.6748C303.661 77.6045 303.369 78.632 303.369 79.6596C303.369 80.9807 303.612 82.1061 304.148 83.0358C304.635 83.9655 305.365 84.6505 306.338 85.1398C307.312 85.6291 308.334 85.8738 309.357 85.8738C311.06 85.8738 312.472 85.2866 313.592 84.1123C314.711 82.9379 315.295 81.5189 315.295 79.7574C315.295 78.0448 314.76 76.5769 313.64 75.4515C312.521 74.3261 311.06 73.7878 309.308 73.7878Z" fill="white"/>
<path d="M332.723 74.2772C332.139 73.9346 331.408 73.7878 330.581 73.7878C329.948 73.7878 329.315 73.9346 328.731 74.2772C328.147 74.5707 327.611 75.0111 327.076 75.6472C326.735 75.06 326.297 74.5707 325.762 74.2772C325.226 73.9836 324.593 73.7878 323.863 73.7878C322.5 73.7878 321.283 74.375 320.261 75.5983V74.0325H317.437V85.5802H320.455V79.9531C320.455 78.8277 320.504 78.0448 320.699 77.5555C320.894 77.0662 321.137 76.7237 321.526 76.479C321.916 76.2344 322.354 76.0876 322.792 76.0876C323.182 76.0876 323.474 76.1365 323.717 76.3322C323.912 76.479 324.106 76.7237 324.204 77.0662C324.35 77.3598 324.35 78.0938 324.35 79.2192V85.5313H327.417V79.9531C327.417 78.8767 327.514 78.0448 327.66 77.5555C327.806 77.0662 328.049 76.7237 328.439 76.4301C328.828 76.1855 329.218 76.0387 329.656 76.0387C330.24 76.0387 330.678 76.2344 330.97 76.6748C331.165 77.0173 331.262 77.7512 331.262 78.8767V85.4823H334.329V78.0938C334.329 76.9684 334.232 76.1855 333.988 75.6961C333.745 75.1579 333.307 74.6197 332.723 74.2772Z" fill="white"/>
<path d="M344.698 82.5954C344.211 83.1826 343.627 83.4272 342.945 83.4272C342.166 83.4272 341.582 83.1336 341.047 82.4975C340.511 81.8614 340.268 80.8828 340.268 79.6106C340.268 78.4852 340.511 77.6044 340.998 77.0173C341.485 76.4301 342.118 76.1365 342.848 76.1365C343.529 76.1365 344.162 76.4301 344.649 77.0173C345.136 77.6044 345.379 78.4852 345.379 79.7085C345.379 81.0785 345.136 82.0082 344.698 82.5954ZM343.675 73.7878C342.897 73.7878 342.215 73.9836 341.582 74.3261C340.949 74.6686 340.463 75.109 340.073 75.6961V74.0325H337.25V89.984H340.268V84.1612C340.852 84.7973 341.388 85.1887 341.923 85.4334C342.41 85.6781 342.994 85.8248 343.675 85.8248C344.99 85.8248 346.158 85.2866 347.083 84.2101C348.008 83.1336 348.495 81.6168 348.495 79.7085C348.495 77.8002 348.008 76.3322 347.083 75.3047C346.158 74.3261 345.039 73.7878 343.675 73.7878Z" fill="white"/>
<path d="M357.208 80.6383C357.208 81.3722 357.16 81.8615 357.062 82.1551C356.965 82.5466 356.721 82.8891 356.381 83.1827C355.845 83.5252 355.358 83.7209 354.823 83.7209C354.336 83.7209 353.947 83.5741 353.606 83.2316C353.265 82.938 353.119 82.5466 353.119 82.1551C353.119 81.7148 353.314 81.3722 353.703 81.0787C353.947 80.8829 354.531 80.7361 355.358 80.5404C356.186 80.3936 356.819 80.1979 357.208 80.0511V80.6383ZM360.178 81.7637L360.226 78.1917C360.226 76.8706 360.08 75.9409 359.837 75.4516C359.545 74.9623 359.107 74.5219 358.425 74.1794C357.744 73.8858 356.77 73.739 355.358 73.739C353.898 73.739 352.73 73.9837 352 74.5219C351.221 75.0602 350.734 75.892 350.393 77.0174L353.119 77.5067C353.314 76.9685 353.557 76.577 353.849 76.3813C354.142 76.1856 354.58 76.0877 355.115 76.0877C355.943 76.0877 356.478 76.2345 356.77 76.4791C357.062 76.7238 357.208 77.1642 357.208 77.7513V78.0449C356.673 78.2896 355.651 78.5342 354.239 78.8278C353.168 79.0236 352.438 79.2682 351.854 79.5129C351.318 79.8064 350.88 80.1979 350.588 80.6872C350.296 81.1765 350.101 81.8126 350.101 82.4487C350.101 83.4273 350.442 84.2592 351.123 84.8953C351.805 85.5314 352.778 85.8739 353.898 85.8739C354.58 85.8739 355.164 85.7271 355.797 85.4824C356.381 85.2378 356.916 84.8463 357.452 84.357C357.5 84.406 357.5 84.5038 357.549 84.6995C357.646 85.091 357.744 85.3846 357.841 85.5803H360.859C360.567 85.0421 360.421 84.5038 360.324 84.0145C360.178 83.5252 360.178 82.7912 360.178 81.7637Z" fill="white"/>
<path d="M372.834 75.06C372.542 74.6686 372.153 74.4239 371.569 74.1304C370.985 73.8857 370.4 73.7878 369.719 73.7878C368.21 73.7878 366.944 74.4239 365.971 75.6961V73.9836H363.147V85.5802H366.214V80.3446C366.214 79.0724 366.263 78.1916 366.457 77.7023C366.603 77.2619 366.895 76.8216 367.285 76.528C367.674 76.2344 368.161 76.0876 368.697 76.0876C369.086 76.0876 369.427 76.1855 369.719 76.3812C370.011 76.5769 370.206 76.8705 370.352 77.2619C370.449 77.6044 370.546 78.4363 370.546 79.7085V85.5802H373.565V78.4363C373.565 77.5555 373.467 76.8705 373.418 76.3812C373.321 75.8429 373.126 75.4515 372.834 75.06Z" fill="white"/>
<path d="M383.836 73.9836L381.159 82.204L378.384 73.9836H375.171L379.503 85.5803C379.309 86.2164 379.065 86.7546 378.725 87.195C378.384 87.5864 377.848 87.8311 377.167 87.8311C376.777 87.8311 376.388 87.7822 375.901 87.6843L376.145 90.0819C376.68 90.1798 377.264 90.2287 377.848 90.2287C378.432 90.2287 378.919 90.1798 379.406 90.0819C379.893 89.9351 380.282 89.7394 380.574 89.5437C380.866 89.299 381.159 89.0054 381.402 88.6629C381.645 88.3204 381.889 87.8311 382.181 87.1461L382.911 85.091L386.951 73.9836H383.836Z" fill="white"/>
</g>
<defs>
<clipPath id="clip0_9_2">
<rect width="387" height="119" fill="white"/>
</clipPath>
</defs>
</svg>
